<?xml version="1.0" encoding="UTF-8" standalone="no"?>
<!-- Created with Inkscape (http://www.inkscape.org/) -->

<svg
   xmlns:dc="http://purl.org/dc/elements/1.1/"
   xmlns:cc="http://creativecommons.org/ns#"
   xmlns:rdf="http://www.w3.org/1999/02/22-rdf-syntax-ns#"
   xmlns:svg="http://www.w3.org/2000/svg"
   xmlns="http://www.w3.org/2000/svg"
   xmlns:sodipodi="http://sodipodi.sourceforge.net/DTD/sodipodi-0.dtd"
   xmlns:inkscape="http://www.inkscape.org/namespaces/inkscape"
   width="372.04724"
   height="262.20471"
   id="svg2"
   version="1.1"
   inkscape:version="0.48.4 r9939"
   sodipodi:docname="hubs.svg">
  <defs
     id="defs4" />
  <sodipodi:namedview
     id="base"
     pagecolor="#ffffff"
     bordercolor="#666666"
     borderopacity="1.0"
     inkscape:pageopacity="0.0"
     inkscape:pageshadow="2"
     inkscape:zoom="1.2705479"
     inkscape:cx="182.03066"
     inkscape:cy="94.506137"
     inkscape:document-units="px"
     inkscape:current-layer="layer1"
     showgrid="false"
     units="mm"
     inkscape:window-width="1020"
     inkscape:window-height="745"
     inkscape:window-x="0"
     inkscape:window-y="19"
     inkscape:window-maximized="0" />
  <metadata
     id="metadata7">
    <rdf:RDF>
      <cc:Work
         rdf:about="">
        <dc:format>image/svg+xml</dc:format>
        <dc:type
           rdf:resource="http://purl.org/dc/dcmitype/StillImage" />
        <dc:title />
      </cc:Work>
    </rdf:RDF>
  </metadata>
  <g
     inkscape:label="Capa 1"
     inkscape:groupmode="layer"
     id="layer1"
     transform="translate(0,-790.15744)">
    <path
       transform="matrix(0.66553781,0.29187433,-0.29208528,0.66505716,154.8561,826.09996)"
       sodipodi:type="arc"
       style="fill:#666666;fill-opacity:1;stroke:#000000;stroke-width:1.37637042999999992"
       id="path2985-6"
       sodipodi:cx="89.725067"
       sodipodi:cy="84.328705"
       sodipodi:rx="14.167116"
       sodipodi:ry="14.167116"
       d="m 103.89218,84.328705 c 0,7.824282 -6.342831,14.167116 -14.167113,14.167116 -7.824282,0 -14.167116,-6.342834 -14.167116,-14.167116 0,-7.824282 6.342834,-14.167116 14.167116,-14.167116 7.824282,0 14.167113,6.342834 14.167113,14.167116 z" />
    <path
       sodipodi:type="arc"
       style="fill:#e6e6e6;fill-opacity:1;stroke:#000000;stroke-width:1.37637043"
       id="path2985"
       sodipodi:cx="89.725067"
       sodipodi:cy="84.328705"
       sodipodi:rx="14.167116"
       sodipodi:ry="14.167116"
       d="m 103.89218,84.328705 c 0,7.824282 -6.342831,14.167116 -14.167113,14.167116 -7.824282,0 -14.167116,-6.342834 -14.167116,-14.167116 0,-7.824282 6.342834,-14.167116 14.167116,-14.167116 7.824282,0 14.167113,6.342834 14.167113,14.167116 z"
       transform="matrix(0.66553781,0.29187433,-0.29208528,0.66505716,31.397673,924.84018)" />
    <path
       transform="matrix(0.66553781,0.29187433,-0.29208528,0.66505716,125.3374,888.94935)"
       sodipodi:type="arc"
       style="fill:#e6e6e6;fill-opacity:1;stroke:#000000;stroke-width:1.37637043"
       id="path2985-4"
       sodipodi:cx="89.725067"
       sodipodi:cy="84.328705"
       sodipodi:rx="14.167116"
       sodipodi:ry="14.167116"
       d="m 103.89218,84.328705 c 0,7.824282 -6.342831,14.167116 -14.167113,14.167116 -7.824282,0 -14.167116,-6.342834 -14.167116,-14.167116 0,-7.824282 6.342834,-14.167116 14.167116,-14.167116 7.824282,0 14.167113,6.342834 14.167113,14.167116 z" />
    <path
       transform="matrix(0.66553781,0.29187433,-0.29208528,0.66505716,10.292471,870.10625)"
       sodipodi:type="arc"
       style="fill:#e6e6e6;fill-opacity:1;stroke:#000000;stroke-width:1.37637043"
       id="path2985-3-0"
       sodipodi:cx="89.725067"
       sodipodi:cy="84.328705"
       sodipodi:rx="14.167116"
       sodipodi:ry="14.167116"
       d="m 103.89218,84.328705 c 0,7.824282 -6.342831,14.167116 -14.167113,14.167116 -7.824282,0 -14.167116,-6.342834 -14.167116,-14.167116 0,-7.824282 6.342834,-14.167116 14.167116,-14.167116 7.824282,0 14.167113,6.342834 14.167113,14.167116 z" />
    <path
       transform="matrix(0.66553781,0.29187433,-0.29208528,0.66505716,89.134956,934.83942)"
       sodipodi:type="arc"
       style="fill:#e6e6e6;fill-opacity:1;stroke:#000000;stroke-width:1.37637043"
       id="path2985-4-7"
       sodipodi:cx="89.725067"
       sodipodi:cy="84.328705"
       sodipodi:rx="14.167116"
       sodipodi:ry="14.167116"
       d="m 103.89218,84.328705 c 0,7.824282 -6.342831,14.167116 -14.167113,14.167116 -7.824282,0 -14.167116,-6.342834 -14.167116,-14.167116 0,-7.824282 6.342834,-14.167116 14.167116,-14.167116 7.824282,0 14.167113,6.342834 14.167113,14.167116 z" />
    <path
       transform="matrix(0.66553781,0.29187433,-0.29208528,0.66505716,67.957019,879.67543)"
       sodipodi:type="arc"
       style="fill:#b3b3b3;fill-opacity:1;stroke:#000000;stroke-width:1.37637042999999992"
       id="path2985-4-1"
       sodipodi:cx="89.725067"
       sodipodi:cy="84.328705"
       sodipodi:rx="14.167116"
       sodipodi:ry="14.167116"
       d="m 103.89218,84.328705 c 0,7.824282 -6.342831,14.167116 -14.167113,14.167116 -7.824282,0 -14.167116,-6.342834 -14.167116,-14.167116 0,-7.824282 6.342834,-14.167116 14.167116,-14.167116 7.824282,0 14.167113,6.342834 14.167113,14.167116 z" />
    <path
       transform="matrix(0.66553781,0.29187433,-0.29208528,0.66505716,191.49298,920.61952)"
       sodipodi:type="arc"
       style="fill:#e6e6e6;fill-opacity:1;stroke:#000000;stroke-width:1.37637043"
       id="path2985-4-9"
       sodipodi:cx="89.725067"
       sodipodi:cy="84.328705"
       sodipodi:rx="14.167116"
       sodipodi:ry="14.167116"
       d="m 103.89218,84.328705 c 0,7.824282 -6.342831,14.167116 -14.167113,14.167116 -7.824282,0 -14.167116,-6.342834 -14.167116,-14.167116 0,-7.824282 6.342834,-14.167116 14.167116,-14.167116 7.824282,0 14.167113,6.342834 14.167113,14.167116 z" />
    <path
       transform="matrix(0.66553781,0.29187433,-0.29208528,0.66505716,291.58627,883.62786)"
       sodipodi:type="arc"
       style="fill:#e6e6e6;fill-opacity:1;stroke:#000000;stroke-width:1.37637043"
       id="path2985-4-6"
       sodipodi:cx="89.725067"
       sodipodi:cy="84.328705"
       sodipodi:rx="14.167116"
       sodipodi:ry="14.167116"
       d="m 103.89218,84.328705 c 0,7.824282 -6.342831,14.167116 -14.167113,14.167116 -7.824282,0 -14.167116,-6.342834 -14.167116,-14.167116 0,-7.824282 6.342834,-14.167116 14.167116,-14.167116 7.824282,0 14.167113,6.342834 14.167113,14.167116 z" />
    <path
       transform="matrix(0.66553781,0.29187433,-0.29208528,0.66505716,241.99087,902.71583)"
       sodipodi:type="arc"
       style="fill:#e6e6e6;fill-opacity:1;stroke:#000000;stroke-width:1.37637043"
       id="path2985-4-69"
       sodipodi:cx="89.725067"
       sodipodi:cy="84.328705"
       sodipodi:rx="14.167116"
       sodipodi:ry="14.167116"
       d="m 103.89218,84.328705 c 0,7.824282 -6.342831,14.167116 -14.167113,14.167116 -7.824282,0 -14.167116,-6.342834 -14.167116,-14.167116 0,-7.824282 6.342834,-14.167116 14.167116,-14.167116 7.824282,0 14.167113,6.342834 14.167113,14.167116 z" />
    <path
       transform="matrix(0.66553781,0.29187433,-0.29208528,0.66505716,281.57846,935.6347)"
       sodipodi:type="arc"
       style="fill:#e6e6e6;fill-opacity:1;stroke:#000000;stroke-width:1.37637043"
       id="path2985-4-0"
       sodipodi:cx="89.725067"
       sodipodi:cy="84.328705"
       sodipodi:rx="14.167116"
       sodipodi:ry="14.167116"
       d="m 103.89218,84.328705 c 0,7.824282 -6.342831,14.167116 -14.167113,14.167116 -7.824282,0 -14.167116,-6.342834 -14.167116,-14.167116 0,-7.824282 6.342834,-14.167116 14.167116,-14.167116 7.824282,0 14.167113,6.342834 14.167113,14.167116 z" />
    <path
       transform="matrix(0.66553781,0.29187433,-0.29208528,0.66505716,202.34455,869.15175)"
       sodipodi:type="arc"
       style="fill:#b3b3b3;fill-opacity:1;stroke:#000000;stroke-width:1.37637042999999992"
       id="path2985-4-78"
       sodipodi:cx="89.725067"
       sodipodi:cy="84.328705"
       sodipodi:rx="14.167116"
       sodipodi:ry="14.167116"
       d="m 103.89218,84.328705 c 0,7.824282 -6.342831,14.167116 -14.167113,14.167116 -7.824282,0 -14.167116,-6.342834 -14.167116,-14.167116 0,-7.824282 6.342834,-14.167116 14.167116,-14.167116 7.824282,0 14.167113,6.342834 14.167113,14.167116 z" />
    <path
       transform="matrix(0.66553781,0.29187433,-0.29208528,0.66505716,71.103191,800.18338)"
       sodipodi:type="arc"
       style="fill:#b3b3b3;fill-opacity:1;stroke:#000000;stroke-width:1.37637042999999992"
       id="path2985-3"
       sodipodi:cx="89.725067"
       sodipodi:cy="84.328705"
       sodipodi:rx="14.167116"
       sodipodi:ry="14.167116"
       d="m 103.89218,84.328705 c 0,7.824282 -6.342831,14.167116 -14.167113,14.167116 -7.824282,0 -14.167116,-6.342834 -14.167116,-14.167116 0,-7.824282 6.342834,-14.167116 14.167116,-14.167116 7.824282,0 14.167113,6.342834 14.167113,14.167116 z" />
    <path
       transform="matrix(0.66553781,0.29187433,-0.29208528,0.66505716,95.978134,755.62092)"
       sodipodi:type="arc"
       style="fill:#e6e6e6;fill-opacity:1;stroke:#000000;stroke-width:1.37637043"
       id="path2985-2"
       sodipodi:cx="89.725067"
       sodipodi:cy="84.328705"
       sodipodi:rx="14.167116"
       sodipodi:ry="14.167116"
       d="m 103.89218,84.328705 c 0,7.824282 -6.342831,14.167116 -14.167113,14.167116 -7.824282,0 -14.167116,-6.342834 -14.167116,-14.167116 0,-7.824282 6.342834,-14.167116 14.167116,-14.167116 7.824282,0 14.167113,6.342834 14.167113,14.167116 z" />
    <path
       transform="matrix(0.66553781,0.29187433,-0.29208528,0.66505716,45.077771,758.35327)"
       sodipodi:type="arc"
       style="fill:#e6e6e6;fill-opacity:1;stroke:#000000;stroke-width:1.37637043"
       id="path2985-8"
       sodipodi:cx="89.725067"
       sodipodi:cy="84.328705"
       sodipodi:rx="14.167116"
       sodipodi:ry="14.167116"
       d="m 103.89218,84.328705 c 0,7.824282 -6.342831,14.167116 -14.167113,14.167116 -7.824282,0 -14.167116,-6.342834 -14.167116,-14.167116 0,-7.824282 6.342834,-14.167116 14.167116,-14.167116 7.824282,0 14.167113,6.342834 14.167113,14.167116 z" />
    <path
       transform="matrix(0.66553781,0.29187433,-0.29208528,0.66505716,20.300573,802.53334)"
       sodipodi:type="arc"
       style="fill:#e6e6e6;fill-opacity:1;stroke:#000000;stroke-width:1.37637043"
       id="path2985-4-8"
       sodipodi:cx="89.725067"
       sodipodi:cy="84.328705"
       sodipodi:rx="14.167116"
       sodipodi:ry="14.167116"
       d="m 103.89218,84.328705 c 0,7.824282 -6.342831,14.167116 -14.167113,14.167116 -7.824282,0 -14.167116,-6.342834 -14.167116,-14.167116 0,-7.824282 6.342834,-14.167116 14.167116,-14.167116 7.824282,0 14.167113,6.342834 14.167113,14.167116 z" />
    <path
       transform="matrix(0.66553781,0.29187433,-0.29208528,0.66505716,212.46172,784.00833)"
       sodipodi:type="arc"
       style="fill:#b3b3b3;fill-opacity:1;stroke:#000000;stroke-width:1.37637042999999992"
       id="path2985-4-61"
       sodipodi:cx="89.725067"
       sodipodi:cy="84.328705"
       sodipodi:rx="14.167116"
       sodipodi:ry="14.167116"
       d="m 103.89218,84.328705 c 0,7.824282 -6.342831,14.167116 -14.167113,14.167116 -7.824282,0 -14.167116,-6.342834 -14.167116,-14.167116 0,-7.824282 6.342834,-14.167116 14.167116,-14.167116 7.824282,0 14.167113,6.342834 14.167113,14.167116 z" />
    <path
       transform="matrix(0.66553781,0.29187433,-0.29208528,0.66505716,268.23397,797.89597)"
       sodipodi:type="arc"
       style="fill:#e6e6e6;fill-opacity:1;stroke:#000000;stroke-width:1.37637043"
       id="path2985-4-77"
       sodipodi:cx="89.725067"
       sodipodi:cy="84.328705"
       sodipodi:rx="14.167116"
       sodipodi:ry="14.167116"
       d="m 103.89218,84.328705 c 0,7.824282 -6.342831,14.167116 -14.167113,14.167116 -7.824282,0 -14.167116,-6.342834 -14.167116,-14.167116 0,-7.824282 6.342834,-14.167116 14.167116,-14.167116 7.824282,0 14.167113,6.342834 14.167113,14.167116 z" />
    <path
       transform="matrix(0.66553781,0.29187433,-0.29208528,0.66505716,251.83736,742.34119)"
       sodipodi:type="arc"
       style="fill:#e6e6e6;fill-opacity:1;stroke:#000000;stroke-width:1.37637043"
       id="path2985-4-63"
       sodipodi:cx="89.725067"
       sodipodi:cy="84.328705"
       sodipodi:rx="14.167116"
       sodipodi:ry="14.167116"
       d="m 103.89218,84.328705 c 0,7.824282 -6.342831,14.167116 -14.167113,14.167116 -7.824282,0 -14.167116,-6.342834 -14.167116,-14.167116 0,-7.824282 6.342834,-14.167116 14.167116,-14.167116 7.824282,0 14.167113,6.342834 14.167113,14.167116 z" />
    <path
       style="fill:none;stroke:#000000;stroke-width:1px;stroke-linecap:butt;stroke-linejoin:miter;stroke-opacity:1"
       d="m 111.80523,166.38664 69.37116,-42.76907"
       id="path4213"
       inkscape:connector-type="polyline"
       inkscape:connector-curvature="0"
       inkscape:connection-start="#path2985-4-1"
       inkscape:connection-start-point="d4"
       inkscape:connection-end="#path2985-6"
       inkscape:connection-end-point="d4"
       transform="translate(0,790.15744)" />
    <path
       style="fill:none;stroke:#000000;stroke-width:1px;stroke-linecap:butt;stroke-linejoin:miter;stroke-opacity:1"
       d="M 180.10345,115.17043 116.02435,95.341734"
       id="path4215"
       inkscape:connector-type="polyline"
       inkscape:connector-curvature="0"
       inkscape:connection-start="#path2985-6"
       inkscape:connection-start-point="d4"
       inkscape:connection-end="#path2985-3"
       inkscape:connection-end-point="d4"
       transform="translate(0,790.15744)" />
    <path
       style="fill:none;stroke:#000000;stroke-width:1px;stroke-linecap:butt;stroke-linejoin:miter;stroke-opacity:1"
       d="m 198.25351,112.14006 40.9793,-29.943004"
       id="path4217"
       inkscape:connector-type="polyline"
       inkscape:connector-curvature="0"
       inkscape:connection-start="#path2985-6"
       inkscape:connection-start-point="d4"
       inkscape:connection-end="#path2985-4-61"
       inkscape:connection-end-point="d4"
       transform="translate(0,790.15744)" />
    <path
       style="fill:none;stroke:#000000;stroke-width:1px;stroke-linecap:butt;stroke-linejoin:miter;stroke-opacity:1"
       d="m 197.56851,125.12986 32.23213,29.22081"
       id="path4219"
       inkscape:connector-type="polyline"
       inkscape:connector-curvature="0"
       inkscape:connection-start="#path2985-6"
       inkscape:connection-start-point="d4"
       inkscape:connection-end="#path2985-4-78"
       inkscape:connection-end-point="d4"
       transform="translate(0,790.15744)" />
    <path
       style="fill:none;stroke:#000000;stroke-width:1px;stroke-linecap:butt;stroke-linejoin:miter;stroke-opacity:1"
       d="m 246.33154,86.343051 -7.68831,64.702799"
       id="path4221"
       inkscape:connector-type="polyline"
       inkscape:connector-curvature="0"
       inkscape:connection-start="#path2985-4-61"
       inkscape:connection-start-point="d4"
       inkscape:connection-end="#path2985-4-78"
       inkscape:connection-end-point="d4"
       transform="translate(0,790.15744)" />
    <path
       style="fill:none;stroke:#000000;stroke-width:1px;stroke-linecap:butt;stroke-linejoin:miter;stroke-opacity:1"
       d="M 254.61745,68.639732 279.85013,41.938613"
       id="path4223"
       inkscape:connector-type="polyline"
       inkscape:connector-curvature="0"
       inkscape:connection-start="#path2985-4-61"
       inkscape:connection-start-point="d4"
       inkscape:connection-end="#path2985-4-63"
       inkscape:connection-end-point="d4"
       transform="translate(0,790.15744)" />
    <path
       style="fill:none;stroke:#000000;stroke-width:1px;stroke-linecap:butt;stroke-linejoin:miter;stroke-opacity:1"
       d="m 257.53886,78.611036 35.78647,8.911054"
       id="path4225"
       inkscape:connector-type="polyline"
       inkscape:connector-curvature="0"
       inkscape:connection-start="#path2985-4-61"
       inkscape:connection-start-point="d4"
       inkscape:connection-end="#path2985-4-77"
       inkscape:connection-end-point="d4"
       transform="translate(0,790.15744)" />
    <path
       style="fill:none;stroke:#000000;stroke-width:1px;stroke-linecap:butt;stroke-linejoin:miter;stroke-opacity:1"
       d="M 300.40536,80.141061 289.83447,44.324924"
       id="path4227"
       inkscape:connector-type="polyline"
       inkscape:connector-curvature="0"
       inkscape:connection-start="#path2985-4-77"
       inkscape:connection-start-point="d4"
       inkscape:connection-end="#path2985-4-63"
       inkscape:connection-end-point="d4"
       transform="translate(0,790.15744)" />
    <path
       style="fill:none;stroke:#000000;stroke-width:1px;stroke-linecap:butt;stroke-linejoin:miter;stroke-opacity:1"
       d="m 245.28726,167.91904 23.9294,20.25833"
       id="path4229"
       inkscape:connector-type="polyline"
       inkscape:connector-curvature="0"
       inkscape:connection-start="#path2985-4-78"
       inkscape:connection-start-point="d4"
       inkscape:connection-end="#path2985-4-69"
       inkscape:connection-end-point="d4"
       transform="translate(0,790.15744)" />
    <path
       style="fill:none;stroke:#000000;stroke-width:1px;stroke-linecap:butt;stroke-linejoin:miter;stroke-opacity:1"
       d="m 235.30554,171.33653 -6.60505,31.32704"
       id="path4231"
       inkscape:connector-type="polyline"
       inkscape:connector-curvature="0"
       inkscape:connection-start="#path2985-4-78"
       inkscape:connection-start-point="d4"
       inkscape:connection-end="#path2985-4-9"
       inkscape:connection-end-point="d4"
       transform="translate(0,790.15744)" />
    <path
       style="fill:none;stroke:#000000;stroke-width:1px;stroke-linecap:butt;stroke-linejoin:miter;stroke-opacity:1"
       d="m 247.59504,162.91525 68.90925,11.17793"
       id="path4233"
       inkscape:connector-type="polyline"
       inkscape:connector-curvature="0"
       inkscape:connection-start="#path2985-4-78"
       inkscape:connection-start-point="d4"
       inkscape:connection-end="#path2985-4-6"
       inkscape:connection-end-point="d4"
       transform="translate(0,790.15744)" />
    <path
       style="fill:none;stroke:#000000;stroke-width:1px;stroke-linecap:butt;stroke-linejoin:miter;stroke-opacity:1"
       d="M 308.74581,221.16585 284.99202,201.4135"
       id="path4237"
       inkscape:connector-type="polyline"
       inkscape:connector-curvature="0"
       inkscape:connection-start="#path2985-4-0"
       inkscape:connection-start-point="d4"
       inkscape:connection-end="#path2985-4-69"
       inkscape:connection-end-point="d4"
       transform="translate(0,790.15744)" />
    <path
       style="fill:none;stroke:#000000;stroke-width:1px;stroke-linecap:butt;stroke-linejoin:miter;stroke-opacity:1"
       d="m 141.06767,50.173652 96.47302,23.510772"
       id="path4241"
       inkscape:connector-type="polyline"
       inkscape:connector-curvature="0"
       inkscape:connection-start="#path2985-2"
       inkscape:connection-start-point="d4"
       inkscape:connection-end="#path2985-4-61"
       inkscape:connection-end-point="d4"
       transform="translate(0,790.15744)" />
    <path
       style="fill:none;stroke:#000000;stroke-width:1px;stroke-linecap:butt;stroke-linejoin:miter;stroke-opacity:1"
       d="m 185.56554,127.52895 -20.76908,44.22024"
       id="path4243"
       inkscape:connector-type="polyline"
       inkscape:connector-curvature="0"
       inkscape:connection-start="#path2985-6"
       inkscape:connection-start-point="d4"
       inkscape:connection-end="#path2985-4"
       inkscape:connection-end-point="d4"
       transform="translate(0,790.15744)" />
    <path
       style="fill:none;stroke:#000000;stroke-width:1px;stroke-linecap:butt;stroke-linejoin:miter;stroke-opacity:1"
       d="m 55.536859,163.90669 37.344274,6.19712"
       id="path4245"
       inkscape:connector-type="polyline"
       inkscape:connector-curvature="0"
       inkscape:connection-start="#path2985-3-0"
       inkscape:connection-start-point="d4"
       inkscape:connection-end="#path2985-4-1"
       inkscape:connection-end-point="d4"
       transform="translate(0,790.15744)" />
    <path
       style="fill:none;stroke:#000000;stroke-width:1px;stroke-linecap:butt;stroke-linejoin:miter;stroke-opacity:1"
       d="M 96.564012,179.79173 72.959183,208.95271"
       id="path4247"
       inkscape:connector-type="polyline"
       inkscape:connector-curvature="0"
       inkscape:connection-start="#path2985-4-1"
       inkscape:connection-start-point="d4"
       inkscape:connection-end="#path2985"
       inkscape:connection-end-point="d4"
       transform="translate(0,790.15744)" />
    <path
       style="fill:none;stroke:#000000;stroke-width:1px;stroke-linecap:butt;stroke-linejoin:miter;stroke-opacity:1"
       d="m 106.72937,181.39656 13.80174,35.95056"
       id="path4249"
       inkscape:connector-type="polyline"
       inkscape:connector-curvature="0"
       inkscape:connection-start="#path2985-4-1"
       inkscape:connection-start-point="d4"
       inkscape:connection-end="#path2985-4-7"
       inkscape:connection-end-point="d4"
       transform="translate(0,790.15744)" />
    <path
       style="fill:none;stroke:#000000;stroke-width:1px;stroke-linecap:butt;stroke-linejoin:miter;stroke-opacity:1"
       d="M 100.75027,83.558737 85.599197,59.206739"
       id="path4253"
       inkscape:connector-type="polyline"
       inkscape:connector-curvature="0"
       inkscape:connection-start="#path2985-3"
       inkscape:connection-start-point="d4"
       inkscape:connection-end="#path2985-8"
       inkscape:connection-end-point="d4"
       transform="translate(0,790.15744)" />
    <path
       style="fill:none;stroke:#000000;stroke-width:1px;stroke-linecap:butt;stroke-linejoin:miter;stroke-opacity:1"
       d="M 65.672908,94.17186 95.899359,92.773685"
       id="path4255"
       inkscape:connector-type="polyline"
       inkscape:connector-curvature="0"
       inkscape:connection-start="#path2985-4-8"
       inkscape:connection-start-point="d4"
       inkscape:connection-end="#path2985-3"
       inkscape:connection-end-point="d4"
       transform="translate(0,790.15744)" />
    <path
       style="fill:none;stroke:#000000;stroke-width:1px;stroke-linecap:butt;stroke-linejoin:miter;stroke-opacity:1"
       d="M 126.04604,56.72191 111.20379,83.311216"
       id="path4257"
       inkscape:connector-type="polyline"
       inkscape:connector-curvature="0"
       inkscape:connection-start="#path2985-2"
       inkscape:connection-start-point="d4"
       inkscape:connection-end="#path2985-3"
       inkscape:connection-end-point="d4"
       transform="translate(0,790.15744)" />
    <path
       style="fill:none;stroke:#000000;stroke-width:1px;stroke-linecap:butt;stroke-linejoin:miter;stroke-opacity:1"
       d="M 75.127747,59.444269 60.4191,85.671167"
       id="path4259"
       inkscape:connector-type="polyline"
       inkscape:connector-curvature="0"
       inkscape:connection-start="#path2985-8"
       inkscape:connection-start-point="d4"
       inkscape:connection-end="#path2985-4-8"
       inkscape:connection-end-point="d4"
       transform="translate(0,790.15744)" />
    <path
       style="fill:none;stroke:#000000;stroke-width:1px;stroke-linecap:butt;stroke-linejoin:miter;stroke-opacity:1"
       d="m 105.78041,102.58189 -2.33211,58.92386"
       id="path4261"
       inkscape:connector-type="polyline"
       inkscape:connector-curvature="0"
       inkscape:connection-start="#path2985-3"
       inkscape:connection-start-point="d4"
       inkscape:connection-end="#path2985-4-1"
       inkscape:connection-end-point="d4"
       transform="translate(0,790.15744)" />
    <path
       style="fill:none;stroke:#000000;stroke-width:1px;stroke-linecap:butt;stroke-linejoin:miter;stroke-opacity:1"
       d="m 193.6594,127.80916 29.19878,75.32998"
       id="path4263"
       inkscape:connector-type="polyline"
       inkscape:connector-curvature="0"
       inkscape:connection-start="#path2985-6"
       inkscape:connection-start-point="d4"
       inkscape:connection-end="#path2985-4-9"
       inkscape:connection-end-point="d4"
       transform="translate(0,790.15744)" />
  </g>
</svg>
