<?xml version="1.0" encoding="UTF-8" standalone="no"?>
<!-- Created with Inkscape (http://www.inkscape.org/) -->

<svg
   xmlns:dc="http://purl.org/dc/elements/1.1/"
   xmlns:cc="http://creativecommons.org/ns#"
   xmlns:rdf="http://www.w3.org/1999/02/22-rdf-syntax-ns#"
   xmlns:svg="http://www.w3.org/2000/svg"
   xmlns="http://www.w3.org/2000/svg"
   xmlns:sodipodi="http://sodipodi.sourceforge.net/DTD/sodipodi-0.dtd"
   xmlns:inkscape="http://www.inkscape.org/namespaces/inkscape"
   width="372.04724"
   height="262.20471"
   id="svg2"
   version="1.1"
   inkscape:version="0.48.4 r9939"
   sodipodi:docname="series.svg">
  <defs
     id="defs4">
    <marker
       inkscape:stockid="Arrow2Lend"
       orient="auto"
       refY="0.0"
       refX="0.0"
       id="Arrow2Lend"
       style="overflow:visible;">
      <path
         id="path4049"
         style="fill-rule:evenodd;stroke-width:0.62500000;stroke-linejoin:round;"
         d="M 8.7185878,4.0337352 L -2.2072895,0.016013256 L 8.7185884,-4.0017078 C 6.9730900,-1.6296469 6.9831476,1.6157441 8.7185878,4.0337352 z "
         transform="scale(1.1) rotate(180) translate(1,0)" />
    </marker>
    <marker
       inkscape:stockid="Arrow1Mend"
       orient="auto"
       refY="0.0"
       refX="0.0"
       id="Arrow1Mend"
       style="overflow:visible;">
      <path
         id="path4037"
         d="M 0.0,0.0 L 5.0,-5.0 L -12.5,0.0 L 5.0,5.0 L 0.0,0.0 z "
         style="fill-rule:evenodd;stroke:#000000;stroke-width:1.0pt;"
         transform="scale(0.4) rotate(180) translate(10,0)" />
    </marker>
    <marker
       inkscape:stockid="TriangleOutL"
       orient="auto"
       refY="0.0"
       refX="0.0"
       id="TriangleOutL"
       style="overflow:visible">
      <path
         id="path4170"
         d="M 5.77,0.0 L -2.88,5.0 L -2.88,-5.0 L 5.77,0.0 z "
         style="fill-rule:evenodd;stroke:#000000;stroke-width:1.0pt"
         transform="scale(0.8)" />
    </marker>
    <marker
       inkscape:stockid="Arrow1Lend"
       orient="auto"
       refY="0.0"
       refX="0.0"
       id="Arrow1Lend"
       style="overflow:visible;">
      <path
         id="path4031"
         d="M 0.0,0.0 L 5.0,-5.0 L -12.5,0.0 L 5.0,5.0 L 0.0,0.0 z "
         style="fill-rule:evenodd;stroke:#000000;stroke-width:1.0pt;"
         transform="scale(0.8) rotate(180) translate(12.5,0)" />
    </marker>
    <marker
       inkscape:stockid="Arrow1Send"
       orient="auto"
       refY="0.0"
       refX="0.0"
       id="Arrow1Send"
       style="overflow:visible;">
      <path
         id="path4043"
         d="M 0.0,0.0 L 5.0,-5.0 L -12.5,0.0 L 5.0,5.0 L 0.0,0.0 z "
         style="fill-rule:evenodd;stroke:#000000;stroke-width:1.0pt;"
         transform="scale(0.2) rotate(180) translate(6,0)" />
    </marker>
  </defs>
  <sodipodi:namedview
     id="base"
     pagecolor="#ffffff"
     bordercolor="#666666"
     borderopacity="1.0"
     inkscape:pageopacity="0.0"
     inkscape:pageshadow="2"
     inkscape:zoom="1.7968261"
     inkscape:cx="287.61623"
     inkscape:cy="145.74744"
     inkscape:document-units="px"
     inkscape:current-layer="layer1"
     showgrid="false"
     units="mm"
     inkscape:window-width="573"
     inkscape:window-height="745"
     inkscape:window-x="577"
     inkscape:window-y="19"
     inkscape:window-maximized="0" />
  <metadata
     id="metadata7">
    <rdf:RDF>
      <cc:Work
         rdf:about="">
        <dc:format>image/svg+xml</dc:format>
        <dc:type
           rdf:resource="http://purl.org/dc/dcmitype/StillImage" />
        <dc:title />
      </cc:Work>
    </rdf:RDF>
  </metadata>
  <g
     inkscape:label="Capa 1"
     inkscape:groupmode="layer"
     id="layer1"
     transform="translate(0,-790.15744)">
    <text
       xml:space="preserve"
       style="font-size:12px;font-style:normal;font-weight:normal;line-height:125%;letter-spacing:0px;word-spacing:0px;fill:#000000;fill-opacity:1;stroke:none;font-family:Sans"
       x="12.243812"
       y="90.23481"
       id="text4364"
       sodipodi:linespacing="125%"
       transform="translate(0,790.15744)"><tspan
         sodipodi:role="line"
         id="tspan4366"
         x="12.243812"
         y="90.23481" /></text>
    <path
       style="fill:#999999;stroke:#999999;stroke-width:0.5;stroke-linecap:butt;stroke-linejoin:miter;stroke-miterlimit:4;stroke-opacity:1;stroke-dasharray:none"
       d="m 166.40453,967.21201 15.58303,-28.38339"
       id="path5742"
       inkscape:connector-curvature="0"
       sodipodi:nodetypes="cc" />
    <path
       style="fill:#999999;stroke:#999999;stroke-width:0.5;stroke-linecap:butt;stroke-linejoin:miter;stroke-miterlimit:4;stroke-opacity:1;stroke-dasharray:none"
       d="m 120.7685,893.83873 0,24.86495"
       id="path5744"
       inkscape:connector-curvature="0"
       sodipodi:nodetypes="cc" />
    <path
       style="fill:#999999;stroke:#999999;stroke-width:0.5;stroke-linecap:butt;stroke-linejoin:miter;stroke-miterlimit:4;stroke-opacity:1;stroke-dasharray:none"
       d="M 242.65008,95.800183 227.62359,76.321392"
       id="path5746"
       inkscape:connector-curvature="0"
       transform="translate(0,790.15744)"
       sodipodi:nodetypes="cc" />
    <path
       transform="matrix(0.91569571,0.40187234,-0.40187234,0.91569571,252.03278,746.39412)"
       sodipodi:type="arc"
       style="fill:#e6e6e6;fill-opacity:1;stroke:#000000"
       id="path2985-8"
       sodipodi:cx="89.725067"
       sodipodi:cy="84.328705"
       sodipodi:rx="14.167116"
       sodipodi:ry="14.167116"
       d="m 103.89218,84.328705 c 0,7.824282 -6.342831,14.167116 -14.167113,14.167116 -7.824282,0 -14.167116,-6.342834 -14.167116,-14.167116 0,-7.824282 6.342834,-14.167116 14.167116,-14.167116 7.824282,0 14.167113,6.342834 14.167113,14.167116 z" />
    <path
       transform="matrix(0.91569571,0.40187234,-0.40187234,0.91569571,252.03278,869.57056)"
       sodipodi:type="arc"
       style="fill:#e6e6e6;fill-opacity:1;stroke:#000000"
       id="path2985-8-8"
       sodipodi:cx="89.725067"
       sodipodi:cy="84.328705"
       sodipodi:rx="14.167116"
       sodipodi:ry="14.167116"
       d="m 103.89218,84.328705 c 0,7.824282 -6.342831,14.167116 -14.167113,14.167116 -7.824282,0 -14.167116,-6.342834 -14.167116,-14.167116 0,-7.824282 6.342834,-14.167116 14.167116,-14.167116 7.824282,0 14.167113,6.342834 14.167113,14.167116 z" />
    <path
       transform="matrix(0.91569571,0.40187234,-0.40187234,0.91569571,23.471494,807.98234)"
       sodipodi:type="arc"
       style="fill:#e6e6e6;fill-opacity:1;stroke:#000000"
       id="path2985-8-7"
       sodipodi:cx="89.725067"
       sodipodi:cy="84.328705"
       sodipodi:rx="14.167116"
       sodipodi:ry="14.167116"
       d="m 103.89218,84.328705 c 0,7.824282 -6.342831,14.167116 -14.167113,14.167116 -7.824282,0 -14.167116,-6.342834 -14.167116,-14.167116 0,-7.824282 6.342834,-14.167116 14.167116,-14.167116 7.824282,0 14.167113,6.342834 14.167113,14.167116 z" />
    <rect
       style="fill:#e6e6e6;fill-opacity:1;stroke:#000000;stroke-width:1;stroke-miterlimit:4;stroke-opacity:1;stroke-dasharray:none;stroke-dashoffset:0"
       id="rect4284-96-3"
       width="27.841"
       height="27.841"
       x="172.10312"
       y="907.33929" />
    <path
       style="fill:none;stroke:#000000;stroke-width:1px;stroke-linecap:butt;stroke-linejoin:miter;stroke-opacity:1"
       d="m 85.913665,131.10236 86.189455,-1e-5"
       id="path3322"
       inkscape:connector-type="polyline"
       inkscape:connector-curvature="0"
       inkscape:connection-start="#path2985-8-7"
       inkscape:connection-start-point="d4"
       inkscape:connection-end="#rect4284-96-3"
       inkscape:connection-end-point="d4"
       transform="translate(0,790.15744)" />
    <path
       style="fill:none;stroke:#000000;stroke-width:1px;stroke-linecap:butt;stroke-linejoin:miter;stroke-opacity:1"
       d="M 199.94412,123.60031 287.83237,76.235502"
       id="path3324"
       inkscape:connector-type="polyline"
       inkscape:connector-curvature="0"
       inkscape:connection-start="#rect4284-96-3"
       inkscape:connection-start-point="d4"
       inkscape:connection-end="#path2985-8"
       inkscape:connection-end-point="d4"
       transform="translate(0,790.15744)" />
    <path
       style="fill:none;stroke:#000000;stroke-width:1px;stroke-linecap:butt;stroke-linejoin:miter;stroke-opacity:1"
       d="m 199.94412,138.6044 87.88815,47.36476"
       id="path3326"
       inkscape:connector-type="polyline"
       inkscape:connector-curvature="0"
       inkscape:connection-start="#rect4284-96-3"
       inkscape:connection-start-point="d4"
       inkscape:connection-end="#path2985-8-8"
       inkscape:connection-end-point="d4"
       transform="translate(0,790.15744)" />
  </g>
  <g
     inkscape:groupmode="layer"
     id="layer2"
     inkscape:label="Capa" />
  <g
     id="g5718"
     transform="translate(56.766758,134.68192)">
    <path
       inkscape:connector-curvature="0"
       id="path5669"
       d="m 59.132044,56.853142 c 2.13547,0 2.72957,0 3.935305,0 0.39353,0 0.78706,0 1.1806,0 0.13117,0 0.39353,-0.131177 0.39353,0 0,0.131177 -0.48629,-0.09276 -0.39353,0 0.48932,0.489326 0.98946,0.393531 1.57412,0.393531 0.13118,0 0.2762,0.05866 0.39353,0 0.16593,-0.08296 0.21754,-0.334867 0.39353,-0.393531 0.002,-5.94e-4 1.18022,3.76e-4 1.18059,0 0.9229,-0.9229 -1.21242,0 -0.39353,0 0.29332,0 0.5088,-0.300775 0.78707,-0.393531 0.12444,-0.04148 0.30077,0.09276 0.39353,0 0.18551,-0.185512 -0.11733,-0.552405 0,-0.787062 0.083,-0.165927 0.39353,-0.208019 0.39353,-0.393531 0,-0.131177 -0.39353,0.131177 -0.39353,0 0,-0.185512 0.31056,-0.227604 0.39353,-0.393531 0.0587,-0.117328 -0.0928,-0.300775 0,-0.393531 0.0927,-0.09276 0.30077,0.09276 0.39353,0 0.12758,-0.127582 -0.12489,-1.717882 0,-1.967655 0.083,-0.165927 0.31057,-0.227604 0.39353,-0.393531 0.0587,-0.117328 0,-0.262354 0,-0.393531 0,-0.131177 0,-0.524708 0,-0.393531 0,0.262354 -0.26235,0.787062 0,0.787062 0.60395,0 0.31027,-1.407594 0.39353,-1.574124 0.0587,-0.117328 0.30078,0.09276 0.39353,0 0.0928,-0.09276 -0.13118,-0.393531 0,-0.393531 0.16154,0 -0.41988,2.046706 0.39353,-0.393531 0.083,-0.248891 -0.18551,-0.60155 0,-0.787062 0.0928,-0.09276 0.30078,0.09276 0.39353,0 0.18552,-0.185512 -0.26235,-0.787062 0,-0.787062 0.13118,0 -0.13117,0.393531 0,0.393531 0.18552,0 0.22761,-0.310567 0.39353,-0.393531 0.24396,-0.121975 1.72613,0.120764 1.96766,0 0.11733,-0.05866 -0.0928,-0.300775 0,-0.393531 0.0178,-0.01784 1.78211,0 1.96765,0 2.34006,0 2.05627,0 5.11591,0 0.65588,0 1.31177,0 1.96765,0 0.26236,0 0.53817,0.08296 0.78706,0 0.27827,-0.09276 0.5088,-0.300775 0.78707,-0.393531 0.24889,-0.08296 0.5247,0 0.78706,0 0.52471,0 1.04941,0 1.57412,0 0.13118,0 0.52471,0 0.39353,0 -0.26235,0 -0.78706,-0.262354 -0.78706,0 0,0.767923 0.8982,0.252333 1.18059,0.393531 0.16593,0.08296 0.22761,0.310567 0.39354,0.393531 0.11732,0.05866 0.30077,-0.09276 0.39353,0 0.0927,0.09276 0.13117,0.393531 0,0.393531 -0.18552,0 -0.57905,-0.393531 -0.39353,-0.393531 0.29332,0 0.57965,0.186122 0.78706,0.393531 0.0927,0.09276 -0.0928,0.300775 0,0.393531 0.0927,0.09276 0.30077,-0.09276 0.39353,0 0.0927,0.09276 -0.0928,0.300775 0,0.393531 0.0611,0.06107 1.02746,-0.05104 1.18059,0 0.27827,0.09276 0.5088,0.300775 0.78706,0.393531 0.32983,0.109943 1.31333,-0.130401 1.57413,0 0.16593,0.08296 0.21754,0.334867 0.39353,0.393531 0.24889,0.08296 0.5524,-0.117328 0.78706,0 0.11733,0.05866 -0.0928,0.300775 0,0.393531 0.10768,0.107679 1.36064,-0.106743 1.57412,0 0.16593,0.08296 0.22761,0.310567 0.39354,0.393531 0.11732,0.05866 0.26235,0 0.39353,0 0.13117,0 0.2762,0.05866 0.39353,0 0.165927,-0.08296 0.239167,-0.290627 0.393527,-0.393531 0.24406,-0.162705 0.52471,-0.262354 0.78706,-0.393531 0.26235,-0.131177 0.65589,-0.655885 0.78706,-0.393531 0.13118,0.262354 -0.78706,0.686852 -0.78706,0.393531 0,-1.521154 0.7271,-0.560316 1.18059,-0.787062 0.16593,-0.08296 0.22761,-0.310567 0.39353,-0.393531 0.11733,-0.05866 0.27621,0.05866 0.39354,0 0.16592,-0.08296 0.2276,-0.310567 0.393534,-0.393531 0.0566,-0.02828 1.94978,-0.006 1.96765,0 0.17599,0.05866 0.22761,0.310567 0.39353,0.393531 0.15603,0.07802 1.10014,-0.08045 1.1806,0 0.0927,0.09276 -0.0928,0.300775 0,0.393531 0.0126,0.01266 1.08515,0 1.18059,0 1.48667,0 -1.74903,0 0.78706,0 0.13118,0 -0.52471,0 -0.39353,0 0.26235,0 0.52471,0 0.78706,0 0.39353,0 0.78706,0 1.18059,0 0.13118,0 0.39354,-0.131177 0.39354,0 0,0.117593 -1.30518,-0.259058 0,0.393531 0.11732,0.05866 0.26235,0 0.39353,0 0.26235,0 0.52471,0 0.78706,0 0.13118,0 -0.52471,0 -0.39353,0 0.26235,0 0.53817,-0.08296 0.78706,0 1.22834,0.409445 -0.13118,0.262354 0.39353,0.787062 0.0928,0.09276 0.30078,-0.09276 0.39353,0 0.18551,0.185512 -0.11733,0.552405 0,0.787062 0.083,0.165927 0.31057,0.227604 0.39353,0.393531 0.11733,0.234657 -0.11733,0.552405 0,0.787062 0.083,0.165927 0.31057,0.227604 0.39353,0.393531 0.0587,0.117328 -0.0928,0.300775 0,0.393531 0.0928,0.09276 0.27621,-0.05866 0.39354,0 0.16592,0.08296 0.2276,0.310567 0.39353,0.393531 0.11976,0.05988 1.00336,0 1.18059,0 1.01191,0 1.78946,0.0594 1.96765,0 0.176,-0.05866 0.22761,-0.310567 0.39354,-0.393531 0.11732,-0.05866 0.2762,0.05866 0.39353,0 0.10448,-0.05224 1.12835,-1.076106 1.18059,-1.180593 0.0587,-0.117328 -0.0928,-0.300775 0,-0.393531 0.20741,-0.207409 0.50879,-0.300775 0.78706,-0.393531 0.19533,-0.06511 1.14708,-0.03351 1.18059,0 0.52471,0.524708 -0.65588,0.393531 0.39354,0.393531 l 0.18911,8.305449 -60.005826,0 z"
       style="fill:#d5ffd5;stroke:none" />
    <path
       sodipodi:nodetypes="ccc"
       inkscape:connector-curvature="0"
       id="path5673"
       d="m 122.85552,60.042688 -63.723476,0 0,-18.78312"
       style="fill:none;stroke:#000000;stroke-width:0.30000001;stroke-linecap:butt;stroke-linejoin:miter;stroke-miterlimit:4;stroke-opacity:1;stroke-dasharray:none" />
  </g>
  <g
     id="g5722"
     transform="translate(56.766762,36.731434)">
    <path
       inkscape:connector-curvature="0"
       id="path5667"
       d="m 139.67989,28.178547 c 0.31549,0.807997 1.3694,-0.692661 1.96766,-0.393531 0.33185,0.165927 0.45521,0.621135 0.78706,0.787062 0.31483,0.157412 0.86577,-0.157412 1.18059,0 1.85833,0.929164 -2.40196,-0.206959 1.57413,0.787062 0.16113,0.04028 1.57412,-0.03898 1.57412,0 0,0.131177 -0.39353,0.131177 -0.39353,0 0,-0.818891 0.55188,-0.158345 0.78706,-0.393531 0.0928,-0.09276 -0.0928,-0.300775 0,-0.393531 0.18551,-0.185512 0.60155,0.185512 0.78706,0 0.0928,-0.09276 -0.0587,-0.276203 0,-0.393531 0.8189,-1.637782 -0.0272,0.420699 0.78707,-0.393531 0.0927,-0.09276 -0.13118,-0.393531 0,-0.393531 0.18551,0 0.21754,0.334867 0.39353,0.393531 0.24889,0.08296 0.5524,-0.117328 0.78706,0 0.11733,0.05866 -0.0928,0.300775 0,0.393531 0.0928,0.09276 0.2762,-0.05866 0.39353,0 0.16593,0.08296 0.2276,0.310567 0.39353,0.393531 0.11733,0.05866 0.30078,-0.09276 0.39353,0 0.0928,0.09276 -0.0927,0.300775 0,0.393531 0.0928,0.09276 0.26236,0 0.39353,0 1.53731,0 0.0416,0.117328 1.57413,-0.393531 0.12444,-0.04148 0.26908,0.04148 0.39353,0 0.27827,-0.09276 0.50879,-0.300775 0.78706,-0.393531 0.24889,-0.08296 0.60155,0.185512 0.78706,0 0.0928,-0.09276 -0.0927,-0.300775 0,-0.393531 0.0928,-0.09276 0.26236,0 0.39353,0 0.26236,0 0.52471,0 0.78707,0 0.13117,0 0.2762,-0.05866 0.39353,0 0.16592,0.08296 0.2276,0.310567 0.39353,0.393531 0.11733,0.05866 0.26235,0 0.39353,0 0.13118,0 0.26235,0 0.39353,0 0.13118,0 0.52471,0 0.39353,0 -0.26235,0 -1.04942,0 -0.78706,0 0.14051,0 3.20005,-0.08543 3.54178,0 0.56912,0.142281 1.01758,0.60155 1.57412,0.787062 0.12445,0.04148 0.26236,0 0.39353,0 0.9229,0 -0.18551,0.09276 0.78706,-0.393531 0.11733,-0.05866 0.26236,0 0.39354,0 0.13117,0 0.26235,0 0.39353,0 0.14452,0 1.55828,-0.01584 1.57412,0 0.1749,0.174903 -0.30608,0.743336 0.39353,0.393531 0.16593,-0.08296 0.22761,-0.310567 0.39353,-0.393531 0.11043,-0.05521 1.4637,-0.05521 1.57413,0 0.16592,0.08296 0.2276,0.310567 0.39353,0.393531 0.23465,0.117328 0.53817,-0.08296 0.78706,0 0.82641,0.275472 1.53477,0.905121 2.36119,1.180593 0.31675,0.105584 1.32264,-0.125737 1.57412,0 0.16593,0.08296 0.2276,0.310567 0.39353,0.393531 0.11733,0.05866 0.26909,-0.04148 0.39353,0 0.27827,0.09276 0.5088,0.300775 0.78706,0.393531 0.12445,0.04148 0.30078,-0.09276 0.39353,0 0.0928,0.09276 -0.0927,0.300775 0,0.393531 0.13077,0.130763 0.6563,-0.130763 0.78707,0 0.0927,0.09276 -0.0928,0.300775 0,0.393531 0.0927,0.09276 0.30077,0.09276 0.39353,0 0.0927,-0.09276 -0.0928,-0.300775 0,-0.393531 0.0927,-0.09276 0.30077,0.09276 0.39353,0 0.81423,-0.81423 -1.24425,0.03183 0.39353,-0.787062 0.11733,-0.05866 0.33487,0.117328 0.39353,0 0.11733,-0.234657 -0.11733,-0.552405 0,-0.787062 0.0587,-0.117328 0.30078,0.09276 0.39353,0 0.0928,-0.09276 -0.0587,-0.276203 0,-0.393531 0.083,-0.165927 0.31057,-0.227604 0.39353,-0.393531 0.11733,-0.234657 -0.18551,-0.60155 0,-0.787062 0.0928,-0.09276 0.30078,0.09276 0.39353,0 0.0928,-0.09276 -0.0415,-0.269086 0,-0.393531 0.0928,-0.278268 0.30078,-0.508794 0.39353,-0.787062 0.083,-0.248891 -0.18551,-0.60155 0,-0.787062 0.0928,-0.09276 0.30078,0.09276 0.39354,0 0.18551,-0.185512 -0.18552,-0.60155 0,-0.787062 0.0927,-0.09276 0.33486,0.117328 0.39353,0 0.11733,-0.234657 -0.11733,-0.552405 0,-0.787062 0.0587,-0.117328 0.30077,0.09276 0.39353,0 0.23507,-0.235075 -0.52626,-1.66261 0.78706,-0.787062 0.24406,0.162705 0.23083,0.543004 0.39353,0.787062 -0.14545,0.673444 0.65472,0.261191 0.78706,0.393531 0.20741,0.207409 0.23083,0.543004 0.39353,0.787062 0.20581,0.308711 0.62114,0.455207 0.78707,0.787062 0.0587,0.117328 -0.0928,0.300775 0,0.393531 0.0927,0.09276 0.30077,-0.09276 0.39353,0 0.0927,0.09276 -0.0928,0.300775 0,0.393531 0.0927,0.09276 0.30077,-0.09276 0.39353,0 0.0927,0.09276 -0.0587,0.276203 0,0.393531 0.083,0.165927 0.31057,0.227604 0.39353,0.393531 0.0587,0.117328 -0.0928,0.300775 0,0.393531 0.0928,0.09276 0.30077,-0.09276 0.39353,0 0.18551,0.185512 -0.18551,0.60155 0,0.787062 0.0928,0.09276 0.30077,-0.09276 0.39353,0 0.13169,0.131684 -0.13168,0.655378 0,0.787062 0.0928,0.09276 0.30078,-0.09276 0.39353,0 0.0928,0.09276 -0.0587,0.276203 0,0.393531 0.083,0.165927 0.31057,0.227604 0.39353,0.393531 0.0587,0.117328 0,0.262354 0,0.393531 0.13118,0.131177 0.31057,0.227604 0.39353,0.393531 0.0587,0.117328 -0.0927,0.300775 0,0.393531 0.0928,0.09276 0.30078,-0.09276 0.39353,0 0.0928,0.09276 -0.0728,0.284385 0,0.393531 0.20581,0.308711 0.58126,0.478351 0.78707,0.787062 0.0728,0.109146 -0.0928,0.300775 0,0.393531 0.0927,0.09276 0.30077,0.09276 0.39353,0 0.18551,-0.185512 -0.083,-0.538171 0,-0.787062 0.45219,-1.356585 0.39353,-0.291513 0.39353,-1.180593 0,-2.230009 -0.26235,-0.131177 0.39353,-0.787062 0.0928,-0.09276 0,-0.262354 0,-0.393531 0,-0.262354 -0.11733,-0.552405 0,-0.787062 0.0587,-0.117328 0.30077,0.09276 0.39353,0 0.18551,-0.185512 -0.26235,-0.787062 0,-0.787062 0.13118,0 -0.13118,0.393531 0,0.393531 0.18551,0 0.20802,-0.393531 0.39353,-0.393531 0.13118,0 -0.0928,0.300775 0,0.393531 0.18551,0.185512 0.60155,-0.185512 0.78706,0 0.0928,0.09276 -0.0928,0.300775 0,0.393531 0.0928,0.09276 0.26236,0 0.39354,0 0.78706,0 1.57412,0 2.36118,0 0.13118,0 0.30078,0.09276 0.39353,0 0.0928,-0.09276 -0.11733,-0.334867 0,-0.393531 0.23466,-0.117328 0.55241,0.117328 0.78706,0 0.11733,-0.05866 -0.0927,-0.300775 0,-0.393531 0.0928,-0.09276 0.27621,0.05866 0.39354,0 0.16592,-0.08296 0.2276,-0.310567 0.39353,-0.393531 0.11732,-0.05866 0.30077,0.09276 0.39353,0 0.0927,-0.09276 -0.11733,-0.334867 0,-0.393531 0.23465,-0.117328 0.78706,-0.262354 0.78706,0 0,0.262354 -1.04942,0 -0.78706,0 2.18706,0 1.04126,0 2.36118,0 0.69268,0 0.78707,0.325489 0.78707,-0.393531 l 0.29021,8.267885 -59.7134,0 z"
       style="fill:#d5e5ff;fill-opacity:1;stroke:none" />
    <path
       sodipodi:nodetypes="ccc"
       inkscape:connector-curvature="0"
       id="path5673-5"
       d="m 203.55337,35.902901 -63.72348,0 0,-18.78312"
       style="fill:none;stroke:#000000;stroke-width:0.30000001;stroke-linecap:butt;stroke-linejoin:miter;stroke-miterlimit:4;stroke-opacity:1;stroke-dasharray:none" />
  </g>
  <g
     id="g5726"
     transform="translate(145.15188,83.045901)">
    <path
       inkscape:connector-curvature="0"
       id="path5671"
       d="m 119.98685,58.882157 c 0.52471,0.262354 1.83648,0.262354 1.57413,0.787062 -0.26236,0.524708 -1.98894,-1.20188 -1.57413,-0.787062 0.54086,0.540857 1.37038,0.702772 1.96766,1.180593 0.10243,0.08195 -0.11733,0.334867 0,0.393531 0.23465,0.117328 0.53254,-0.06363 0.78706,0 0.28456,0.07114 0.50879,0.300775 0.78706,0.393531 0.12445,0.04148 0.30078,-0.09276 0.39353,0 0.0928,0.09276 -0.0927,0.300775 0,0.393531 0.18552,0.185512 0.60155,-0.185512 0.78707,0 0.0927,0.09276 -0.0928,0.300775 0,0.393531 0.19676,0.196766 0.98382,-0.196765 1.18059,0 0.0927,0.09276 -0.0928,0.300775 0,0.393531 0.0927,0.09276 0.26908,-0.04148 0.39353,0 0.27827,0.09276 0.543,0.230826 0.78706,0.393531 0.44937,0.299578 0.46726,0.787062 1.18059,0.787062 0.13118,0 -0.13117,-0.393531 0,-0.393531 0.13118,0 -0.13117,0.393531 0,0.393531 0.29333,0 0.49375,-0.393531 0.78707,-0.393531 0.18551,0 0.2276,0.310567 0.39353,0.393531 0.25147,0.125737 1.25737,-0.105584 1.57412,0 1.35659,0.452195 0.29152,0.393531 1.18059,0.393531 0.13118,0 0.26909,0.04148 0.39354,0 0.27826,-0.09276 0.50879,-0.300775 0.78706,-0.393531 0.31372,-0.104574 1.87247,0.09518 1.96765,0 0.0928,-0.09276 -0.0927,-0.300775 0,-0.393531 0.20741,-0.207409 0.57966,-0.186122 0.78706,-0.393531 0.0928,-0.09276 -0.0928,-0.300775 0,-0.393531 0.18552,-0.185512 0.60155,0.185512 0.78707,0 0.13168,-0.131684 -0.13169,-0.655378 0,-0.787062 0.0927,-0.09276 0.26235,0 0.39353,0 0.26235,0 0.53817,-0.08296 0.78706,0 0.17599,0.05866 0.26235,0.262354 0.39353,0.393531 0.13118,0.131177 0.26235,0.262354 0.39353,0.393531 0.54839,0.548387 1.02574,1.025737 1.57413,1.574124 0.13117,0.131177 0.31056,0.227604 0.39353,0.393531 0.0587,0.117328 -0.13118,0.393531 0,0.393531 0.695,0 0.24421,-1.180593 0.39353,-1.180593 0.18551,0 0.39353,0.208019 0.39353,0.393531 0,0.131177 -0.52471,0 -0.39353,0 0.39353,0 0.81521,-0.146154 1.18059,0 0.1998,0.07992 1.08345,1.344151 1.57412,1.180593 0.27827,-0.09276 0.18613,-0.579653 0.39354,-0.787062 0.22689,-0.226895 0.78345,0.261151 1.18059,0.393531 0.12444,0.04148 0.26235,0 0.39353,0 0.13118,0 0.30077,0.09276 0.39353,0 0.0928,-0.09276 -0.0928,-0.300775 0,-0.393531 0.0928,-0.09276 0.33487,0.117328 0.39353,0 0.11733,-0.234657 -0.18551,-0.60155 0,-0.787062 0.18551,-0.185512 0.52471,0 0.78706,0 0.13118,0 0.30078,0.09276 0.39353,0 0.0928,-0.09276 -0.0927,-0.300775 0,-0.393531 0.0928,-0.09276 0.30078,-0.09276 0.39354,0 0.0927,0.09276 0.13117,0.393531 0,0.393531 -0.13118,0 -0.13118,-0.393531 0,-0.393531 0.18551,0 0.2276,0.310567 0.39353,0.393531 0.11733,0.05866 0.39353,-0.131177 0.39353,0 0,0.131177 -0.52471,0 -0.39353,0 0.26235,0 0.5524,0.117328 0.78706,0 0.11733,-0.05866 -0.0928,-0.300775 0,-0.393531 0.0927,-0.09276 0.26235,0 0.39353,0 0.13118,-0.131177 0.28222,-0.245121 0.39353,-0.393531 0.28378,-0.378372 0.40869,-0.896814 0.78706,-1.180593 0.38789,-0.290912 1.32665,0.207921 1.57413,0.393531 0.29682,0.222615 0.4552,0.621135 0.78706,0.787062 0.23466,0.117328 0.5524,-0.117328 0.78706,0 0.26235,0.262354 0.52471,0.524708 0.78706,0.787062 0.13118,0 0.27621,-0.05866 0.39353,0 0.16593,0.08296 0.39353,0.208019 0.39353,0.393531 0,0.131177 -0.39353,0.131177 -0.39353,0 0,-0.131177 0.26236,0 0.39353,0 0.26236,0 0.55241,-0.117328 0.78707,0 0.11733,0.05866 0.13117,0.393531 0,0.393531 -0.13118,0 -0.0587,-0.276203 0,-0.393531 0.24314,-0.486287 0.37994,-0.393531 0.78706,-0.393531 0.34103,0 1.34616,0.07599 1.57412,0 2.85051,-0.95017 -0.62044,0.113456 1.1806,-0.787062 0.11732,-0.05866 0.26235,0 0.39353,0 0.13117,0 0.39353,-0.131177 0.39353,0 0,0.131177 -0.51086,-0.05866 -0.39353,0 0.30736,0.153683 1.62379,0.443205 1.96765,0.787062 0.0928,0.09276 0.13118,0.393531 0,0.393531 -0.13118,0 -0.0587,-0.276203 0,-0.393531 0.16593,-0.331854 0.62114,-0.455207 0.78706,-0.787062 0.10495,-0.209883 -0.23611,-0.708356 0.39353,-0.393531 0.16593,0.08296 0.26236,0.262354 0.39354,0.393531 0.26235,0.262354 0.49734,0.555285 0.78706,0.787062 0.36932,0.295459 0.80222,0.503283 1.18059,0.787062 0.78706,0.590297 0,0.393531 1.18059,1.180593 0.10915,0.07276 0.39353,-0.131177 0.39353,0 0,0.131177 -0.5247,0 -0.39353,0 0.26236,0 0.52471,0 0.78707,0 0.13117,0 0.39353,-0.131177 0.39353,0 0,0.131177 -0.48629,0.09276 -0.39353,0 0.20741,-0.207409 0.62435,-0.149473 0.78706,-0.393531 0.14553,-0.218292 -0.11733,-0.552405 0,-0.787062 0.0587,-0.117328 0.30077,0.09276 0.39353,0 0.0486,-0.04861 0,-1.327345 0,-1.574124 0,-0.131177 0,-0.262354 0,-0.393531 0,-0.131177 -0.13118,-0.393531 0,-0.393531 0.13118,0 0.13118,0.393531 0,0.393531 -0.47709,0 0.0979,-0.491486 0.39353,-0.787062 0.13118,-0.131177 0.26235,-0.262354 0.39353,-0.393531 0.13118,-0.131177 0.31057,-0.227604 0.39353,-0.393531 0.0587,-0.117328 -0.0587,-0.276203 0,-0.393531 0.083,-0.165927 0.31057,-0.227604 0.39353,-0.393531 0.0587,-0.117328 -0.0928,-0.300775 0,-0.393531 0.0928,-0.09276 0.30078,0.09276 0.39353,0 0.0928,-0.09276 -0.0587,-0.276203 0,-0.393531 0.083,-0.165927 0.26236,-0.262354 0.39354,-0.393531 0.13117,-0.131177 0.20801,-0.393531 0.39353,-0.393531 0.18551,0 0.21753,0.334867 0.39353,0.393531 0.24889,0.08296 0.5524,-0.117328 0.78706,0 0.11733,0.05866 -0.0587,0.276203 0,0.393531 0.24314,0.486287 0.37995,0.393531 0.78706,0.393531 0.13118,0 0.30078,-0.09276 0.39353,0 0.0928,0.09276 0.13118,0.393531 0,0.393531 -0.18551,0 -0.57904,-0.393531 -0.39353,-0.393531 0.29332,0 0.54301,0.230826 0.78706,0.393531 0.15436,0.102904 0.22761,0.310567 0.39353,0.393531 0.11733,0.05866 0.30078,-0.09276 0.39354,0 0.0927,0.09276 0.13117,0.393531 0,0.393531 -0.13118,0 -0.13118,-0.393531 0,-0.393531 0.18551,0 0.2276,0.310567 0.39353,0.393531 0.11732,0.05866 0.26235,0 0.39353,0 0.13117,0 0.26235,0 0.39353,0 0.13118,0 0.39353,-0.131177 0.39353,0 0,0.131177 -0.52471,0 -0.39353,0 0.39353,0 0.78706,0 1.18059,0 0.13118,0 0.39353,-0.131177 0.39353,0 0,0.131177 -0.52471,0 -0.39353,0 0.26236,0 0.52471,0 0.78706,0 0.13118,0 0.39353,-0.131177 0.39353,0 0,0.131177 -0.5247,0 -0.39353,0 0.39353,0 0.78707,0 1.1806,0 l 0.20292,5.92788 -60.01964,0 z"
       style="fill:#d5e5ff;fill-opacity:1;stroke:none" />
    <path
       sodipodi:nodetypes="ccc"
       inkscape:connector-curvature="0"
       id="path5673-5-6"
       d="m 183.79631,66.234161 -63.72348,0 0,-18.78312"
       style="fill:none;stroke:#000000;stroke-width:0.30000001;stroke-linecap:butt;stroke-linejoin:miter;stroke-miterlimit:4;stroke-opacity:1;stroke-dasharray:none" />
  </g>
  <g
     id="g5730"
     transform="translate(-32.279139,-1.1130739)">
    <path
       inkscape:connector-curvature="0"
       id="path5663"
       d="m 123.2621,99.761637 c 3.26232,0.815583 0.67437,0.646643 1.96766,0 0.11733,-0.05867 0.30077,0.09276 0.39353,0 0.0928,-0.09276 -0.0928,-0.300775 0,-0.393531 0.0928,-0.09276 0.30077,0.09276 0.39353,0 0.0928,-0.09276 -0.0928,-0.300775 0,-0.393531 0.20741,-0.207409 0.57965,-0.186122 0.78706,-0.393531 0.0928,-0.09276 -0.45219,0.117328 -0.39353,0 0.26236,-0.262354 0.52471,-0.524708 0.78706,-0.787062 0.13118,0 0.30078,0.09276 0.39353,0 0.0928,-0.09276 -0.0587,-0.276203 0,-0.393531 0.083,-0.165928 0.31057,-0.227604 0.39354,-0.393531 0.11759,-0.235187 -0.25906,-0.787062 0.39353,-0.787062 0.29332,0 0.50879,0.300774 0.78706,0.393531 0.12444,0.04148 0.30077,-0.09276 0.39353,0 0.0928,0.09276 -0.0928,0.300774 0,0.393531 0.0928,0.09276 0.30077,-0.09276 0.39353,0 0.0928,0.09276 -0.0928,0.300774 0,0.393531 0.0555,0.0555 1.09987,0.04036 1.18059,0 0.16593,-0.08296 0.22761,-0.310568 0.39353,-0.393531 0.11733,-0.05867 0.30078,0.09276 0.39354,0 0.0927,-0.09276 -0.0928,-0.300775 0,-0.393531 0.2074,-0.207409 0.5247,-0.262354 0.78706,-0.393531 0.26235,-0.131177 0.52471,-0.262354 0.78706,-0.393531 0.26235,-0.131177 0.52471,-0.262354 0.78706,-0.393531 0.13118,-0.131177 0.22761,-0.310568 0.39353,-0.393531 0.11733,-0.05867 0.30078,0.09276 0.39353,0 0.18552,-0.185513 -0.26235,-0.787062 0,-0.787062 0.55751,0 -1.115,1.836478 0,-0.393531 0.0587,-0.117329 0.30078,0.09276 0.39353,0 0.0928,-0.09276 0.13118,-0.393531 0,-0.393531 -0.18551,0 -0.57904,0.393531 -0.39353,0.393531 0.29332,0 0.49374,-0.393531 0.78707,-0.393531 0.13117,0 -0.0415,0.269085 0,0.393531 0.0927,0.278268 0.23082,0.543004 0.39353,0.787062 0.1029,0.154355 0.31056,0.227603 0.39353,0.393531 0.0587,0.117328 -0.0928,0.300774 0,0.393531 0.0927,0.09276 0.30077,-0.09276 0.39353,0 1.10808,0.02443 0.10021,0.887272 0.39353,1.180593 0.0928,0.09276 0.26908,-0.04148 0.39353,0 0.27827,0.09276 0.57965,0.186122 0.78706,0.393531 0.1749,0.174902 -0.30608,0.743336 0.39353,0.393531 0.33186,-0.165928 0.45521,-0.621135 0.78707,-0.787062 0.11732,-0.05867 0.30077,0.09276 0.39353,0 0.13168,-0.131685 -0.13169,-0.655378 0,-0.787062 0.0927,-0.09276 0.30077,0.09276 0.39353,0 0.0927,-0.09276 -0.0587,-0.276203 0,-0.393531 0.083,-0.165928 0.26235,-0.524708 0.39353,-0.393531 0.13118,0.131177 -0.39353,0.579043 -0.39353,0.393531 0,-0.293321 0.18612,-0.579653 0.39353,-0.787062 0.0928,-0.09276 0.30077,0.09276 0.39353,0 0.0928,-0.09276 -0.0928,-0.300775 0,-0.393531 0.0928,-0.09276 0.30077,0.09276 0.39353,0 0.47931,-0.479315 0.18434,-0.879232 0.78706,-1.180593 0.11733,-0.05867 0.30078,0.09276 0.39353,0 0.0928,-0.09276 -0.0928,-0.300775 0,-0.393531 0.0928,-0.09276 0.30078,0.09276 0.39353,0 0.0928,-0.09276 0,-0.262354 0,-0.393531 0.26236,-0.262354 0.47836,-0.581255 0.78707,-0.787063 0.10914,-0.07276 0.39353,-0.131177 0.39353,0 0,0.131177 -0.39353,0.131177 -0.39353,0 0,-0.185512 0.31056,-0.227603 0.39353,-0.393531 0.0587,-0.117328 -0.0928,-0.300774 0,-0.393531 0.0927,-0.09276 0.39353,-0.131177 0.39353,0 0,0.343857 -1.30518,-0.393531 0,-0.393531 0.13118,0 0.13118,0.393531 0,0.393531 -0.52471,0 0.39353,-0.918239 0.39353,-0.393531 0,0.131177 -0.52471,0 -0.39353,0 0.26235,0 0.52471,0 0.78706,0 1.00278,0 0.52452,0.459026 1.18059,0.787062 0.11733,0.05867 0.26236,0 0.39353,0 0.13118,0.131177 0.23918,0.290628 0.39354,0.393531 0.24405,0.162706 0.50879,0.300775 0.78706,0.393531 0.12444,0.04148 0.30077,-0.09276 0.39353,0 0.0927,0.09276 -0.0928,0.300775 0,0.393532 0.0927,0.09276 0.39353,-0.131177 0.39353,0 0,0.131177 -0.39353,0.131177 -0.39353,0 0,-0.786301 0.94612,-0.159059 1.18059,-0.393532 0.0928,-0.09276 -0.0927,-0.300774 0,-0.393531 0.18551,-0.185512 0.60155,0.185513 0.78706,0 0.0928,-0.09276 0.13118,-0.393531 0,-0.393531 -0.18551,0 -0.57904,0.393531 -0.39353,0.393531 0.29332,0 0.57966,-0.186121 0.78706,-0.393531 0.0928,-0.09276 -0.13117,-0.393531 0,-0.393531 0.27141,0 -0.47658,1.305179 0.39354,0 0.1627,-0.244057 0.18612,-0.579652 0.39353,-0.787062 0.0927,-0.09276 0.30077,0.09276 0.39353,0 0.0927,-0.09276 -0.0587,-0.276202 0,-0.393531 0.0509,-0.101785 0.73617,-0.685276 0.78706,-0.787062 0.0587,-0.117328 -0.0928,-0.300774 0,-0.393531 0.20741,-0.207409 0.543,-0.230826 0.78706,-0.393531 0.77961,0.03928 0.18612,-0.579653 0.39353,-0.787062 0.0928,-0.09276 0.30078,0.09276 0.39353,0 0.0928,-0.09276 -0.0927,-0.300774 0,-0.393531 0.0394,-0.03935 1.14124,-0.03935 1.1806,0 0.18551,0.185513 -0.18552,0.60155 0,0.787062 0.0927,0.09276 0.26235,0 0.39353,0 0.25852,0 1.48158,0.04627 1.57412,0 0.11733,-0.05866 -0.0927,-0.300774 0,-0.393531 0.18551,-0.185512 0.60155,0.185513 0.78706,0 0.0928,-0.09276 -0.0927,-0.300774 0,-0.393531 0.18552,-0.185512 0.60155,0.185513 0.78707,0 0.0928,-0.09276 -0.0928,-0.300774 0,-0.393531 0.0928,-0.09276 0.39353,-0.131177 0.39353,0 0,0.131177 -0.48629,0.09276 -0.39353,0 0.2074,-0.207409 0.543,-0.230826 0.78706,-0.393531 0.15435,-0.102903 0.2276,-0.310567 0.39353,-0.393531 0.11733,-0.05866 0.30077,0.09276 0.39353,0 0.0928,-0.09276 -0.13118,-0.393531 0,-0.393531 0.13118,0 -0.13118,0.393531 0,0.393531 0.18551,0 0.2276,-0.310567 0.39353,-0.393531 0.11733,-0.05866 0.30078,0.09276 0.39353,0 0.52471,-0.524708 -0.65588,-0.393531 0.39353,-0.393531 0.13118,0 0.30078,-0.09276 0.39353,0 0.0928,0.09276 0.13118,0.393531 0,0.393531 -0.13117,0 -0.13117,-0.393531 0,-0.393531 0.81889,0 0.15835,0.551876 0.39353,0.787062 0.0928,0.09276 0.39354,-0.131177 0.39354,0 0,0.131177 -0.52471,0 -0.39354,0 2.23001,0 0.13118,-0.262354 0.78707,0.393531 0.0927,0.09276 0.26235,0 0.39353,0 0.26235,0 0.5524,-0.117328 0.78706,0 0.11733,0.05866 -0.0928,0.300775 0,0.393531 0.0928,0.09276 0.26235,0 0.39353,0 0.78706,0 1.57412,0 2.36119,0 0.13117,0 0.26235,0 0.39353,0 0.13117,0 0.30077,-0.09276 0.39353,0 0.0927,0.09276 -0.0928,0.300775 0,0.393531 0.0927,0.09276 0.30077,-0.09276 0.39353,0 0.20741,0.207409 0.21754,0.552406 0.39353,0.787062 0.22262,0.29682 0.58126,0.478351 0.78706,0.787062 0.0728,0.109146 -0.0927,0.300775 0,0.393531 0.0928,0.09276 0.27621,-0.05866 0.39353,0 0.14081,0.07041 1.96356,1.961512 1.96766,1.967655 0.0728,0.109146 -0.0928,0.300775 0,0.393531 0.0927,0.09276 0.26908,-0.04148 0.39353,0 0.55654,0.185513 1.01759,0.60155 1.57412,0.787062 0.25242,0.08414 1.17007,0 1.57413,0 0.13117,0 0.30077,0.09276 0.39353,0 0.0928,-0.09276 -0.13118,-0.393531 0,-0.393531 0.13118,0 -0.13118,0.393531 0,0.393531 0.18551,0 0.2276,-0.310567 0.39353,-0.393531 0.11976,-0.05988 1.00336,0 1.18059,0 0.13118,0 0.30078,-0.09276 0.39353,0 0.0928,0.09276 -0.0927,0.300775 0,0.393531 0.0928,0.09276 0.30078,-0.09276 0.39353,0 0.0928,0.09276 -0.0587,0.276203 0,0.393532 0.8189,1.637781 -0.0272,-0.420699 0.78707,0.393531 0.0927,0.09276 -0.0928,0.300774 0,0.393531 0.0927,0.09276 0.30077,-0.09276 0.39353,0 0.0927,0.09276 -0.0928,0.300774 0,0.393531 0.0927,0.09276 0.30077,-0.09276 0.39353,0 0.0928,0.09276 -0.0928,0.300774 0,0.393531 0.0928,0.09276 0.30077,-0.09276 0.39353,0 0.0928,0.09276 0.13118,0.393531 0,0.393531 -0.13118,0 -0.13118,-0.393531 0,-0.393531 0.18551,0 0.39353,0.208018 0.39353,0.393531 0,0.131177 -0.39353,-0.131177 -0.39353,0 0,0.185512 0.26235,0.262354 0.39353,0.393531 l 0.0876,7.356786 -57.93671,0 z"
       style="fill:#d5e5ff;fill-opacity:1;stroke:none" />
    <path
       sodipodi:nodetypes="ccc"
       inkscape:connector-curvature="0"
       id="path5673-5-3"
       d="m 187.13553,101.85252 -63.72348,0 0,-18.783118"
       style="fill:none;stroke:#000000;stroke-width:0.30000001;stroke-linecap:butt;stroke-linejoin:miter;stroke-miterlimit:4;stroke-opacity:1;stroke-dasharray:none" />
  </g>
  <path
     style="fill:#999999;stroke:#999999;stroke-width:0.5;stroke-linecap:butt;stroke-linejoin:miter;stroke-miterlimit:4;stroke-opacity:1;stroke-dasharray:none"
     d="M 266.02463,169.26305 288.2861,153.12349"
     id="path5748"
     inkscape:connector-curvature="0"
     sodipodi:nodetypes="cc" />
</svg>
