<?xml version="1.0" encoding="UTF-8" standalone="no"?>
<!-- Created with Inkscape (http://www.inkscape.org/) -->

<svg
   xmlns:dc="http://purl.org/dc/elements/1.1/"
   xmlns:cc="http://creativecommons.org/ns#"
   xmlns:rdf="http://www.w3.org/1999/02/22-rdf-syntax-ns#"
   xmlns:svg="http://www.w3.org/2000/svg"
   xmlns="http://www.w3.org/2000/svg"
   xmlns:sodipodi="http://sodipodi.sourceforge.net/DTD/sodipodi-0.dtd"
   xmlns:inkscape="http://www.inkscape.org/namespaces/inkscape"
   width="372.04724"
   height="262.20471"
   id="svg2"
   version="1.1"
   inkscape:version="0.48.4 r9939"
   sodipodi:docname="serie.pdf">
  <defs
     id="defs4">
    <marker
       inkscape:stockid="Arrow2Lend"
       orient="auto"
       refY="0.0"
       refX="0.0"
       id="Arrow2Lend"
       style="overflow:visible;">
      <path
         id="path4049"
         style="fill-rule:evenodd;stroke-width:0.62500000;stroke-linejoin:round;"
         d="M 8.7185878,4.0337352 L -2.2072895,0.016013256 L 8.7185884,-4.0017078 C 6.9730900,-1.6296469 6.9831476,1.6157441 8.7185878,4.0337352 z "
         transform="scale(1.1) rotate(180) translate(1,0)" />
    </marker>
    <marker
       inkscape:stockid="Arrow1Mend"
       orient="auto"
       refY="0.0"
       refX="0.0"
       id="Arrow1Mend"
       style="overflow:visible;">
      <path
         id="path4037"
         d="M 0.0,0.0 L 5.0,-5.0 L -12.5,0.0 L 5.0,5.0 L 0.0,0.0 z "
         style="fill-rule:evenodd;stroke:#000000;stroke-width:1.0pt;"
         transform="scale(0.4) rotate(180) translate(10,0)" />
    </marker>
    <marker
       inkscape:stockid="TriangleOutL"
       orient="auto"
       refY="0.0"
       refX="0.0"
       id="TriangleOutL"
       style="overflow:visible">
      <path
         id="path4170"
         d="M 5.77,0.0 L -2.88,5.0 L -2.88,-5.0 L 5.77,0.0 z "
         style="fill-rule:evenodd;stroke:#000000;stroke-width:1.0pt"
         transform="scale(0.8)" />
    </marker>
    <marker
       inkscape:stockid="Arrow1Lend"
       orient="auto"
       refY="0.0"
       refX="0.0"
       id="Arrow1Lend"
       style="overflow:visible;">
      <path
         id="path4031"
         d="M 0.0,0.0 L 5.0,-5.0 L -12.5,0.0 L 5.0,5.0 L 0.0,0.0 z "
         style="fill-rule:evenodd;stroke:#000000;stroke-width:1.0pt;"
         transform="scale(0.8) rotate(180) translate(12.5,0)" />
    </marker>
    <marker
       inkscape:stockid="Arrow1Send"
       orient="auto"
       refY="0.0"
       refX="0.0"
       id="Arrow1Send"
       style="overflow:visible;">
      <path
         id="path4043"
         d="M 0.0,0.0 L 5.0,-5.0 L -12.5,0.0 L 5.0,5.0 L 0.0,0.0 z "
         style="fill-rule:evenodd;stroke:#000000;stroke-width:1.0pt;"
         transform="scale(0.2) rotate(180) translate(6,0)" />
    </marker>
  </defs>
  <sodipodi:namedview
     id="base"
     pagecolor="#ffffff"
     bordercolor="#666666"
     borderopacity="1.0"
     inkscape:pageopacity="0.0"
     inkscape:pageshadow="2"
     inkscape:zoom="1.2746376"
     inkscape:cx="187.66048"
     inkscape:cy="151.25072"
     inkscape:document-units="px"
     inkscape:current-layer="svg2"
     showgrid="false"
     units="mm"
     inkscape:window-width="1020"
     inkscape:window-height="745"
     inkscape:window-x="0"
     inkscape:window-y="19"
     inkscape:window-maximized="0" />
  <metadata
     id="metadata7">
    <rdf:RDF>
      <cc:Work
         rdf:about="">
        <dc:format>image/svg+xml</dc:format>
        <dc:type
           rdf:resource="http://purl.org/dc/dcmitype/StillImage" />
        <dc:title></dc:title>
      </cc:Work>
    </rdf:RDF>
  </metadata>
  <g
     inkscape:label="Capa 1"
     inkscape:groupmode="layer"
     id="layer1"
     transform="translate(0,-790.15744)">
    <path
       style="fill:none;stroke:#000000;stroke-width:1px;stroke-linecap:butt;stroke-linejoin:miter;stroke-opacity:1"
       d="m 0,823.61172 0,0"
       id="path4362"
       inkscape:connector-type="polyline"
       inkscape:connector-curvature="0"
       sodipodi:nodetypes="cc" />
    <text
       xml:space="preserve"
       style="font-size:12px;font-style:normal;font-weight:normal;line-height:125%;letter-spacing:0px;word-spacing:0px;fill:#000000;fill-opacity:1;stroke:none;font-family:Sans"
       x="12.243812"
       y="90.23481"
       id="text4364"
       sodipodi:linespacing="125%"
       transform="translate(0,790.15744)"><tspan
         sodipodi:role="line"
         id="tspan4366"
         x="12.243812"
         y="90.23481" /></text>
  </g>
  <g
     inkscape:groupmode="layer"
     id="layer2"
     inkscape:label="Capa" />
  <path
     style="fill:#d5e5ff;fill-opacity:1;stroke:none"
     d="m 41.997058,191.06938 c 16.051224,4.01282 3.318027,3.1816 9.681255,0 0.577286,-0.28867 1.479845,0.4564 1.936241,0 0.456594,-0.4564 -0.456593,-1.47987 0,-1.93625 0.456594,-0.45639 1.479845,0.4564 1.936242,0 0.456593,-0.45639 -0.456594,-1.47987 0,-1.93624 1.020496,-1.02049 2.851986,-0.91576 3.872482,-1.93625 0.456593,-0.4564 -2.224859,0.57728 -1.936241,0 1.29086,-1.29083 2.581671,-2.58166 3.872482,-3.87249 0.64543,0 1.479894,0.4564 1.936241,0 0.456594,-0.4564 -0.288815,-1.35897 0,-1.93625 0.408376,-0.81639 1.528063,-1.11985 1.936291,-1.93624 0.578564,-1.15717 -1.274624,-3.8725 1.936241,-3.8725 1.443189,0 2.503342,1.47987 3.872482,1.93625 0.612268,0.20409 1.479845,-0.4564 1.936241,0 0.456594,0.4564 -0.456593,1.47986 0,1.93625 0.456594,0.45639 1.479845,-0.4564 1.936242,0 0.456593,0.45639 -0.456594,1.47986 0,1.93624 0.27307,0.27307 5.411566,0.19858 5.808723,0 0.816407,-0.40818 1.119884,-1.52805 1.936241,-1.93624 0.577286,-0.28867 1.479894,0.45639 1.936291,0 0.456101,-0.4564 -0.456594,-1.47987 0,-1.93625 1.020447,-1.02049 2.581622,-1.29083 3.872482,-1.93625 1.290811,-0.64541 2.581672,-1.29083 3.872483,-1.93624 1.290811,-0.64542 2.581671,-1.29083 3.872482,-1.93625 0.64543,-0.64541 1.119884,-1.52805 1.936241,-1.93624 0.577286,-0.28867 1.479894,0.45639 1.93624,0 0.91279,-0.91276 -1.29081,-3.8725 0,-3.8725 2.74306,0 -5.486007,9.03582 0,-1.93624 0.28882,-0.57728 1.4799,0.45639 1.93624,0 0.4566,-0.4564 0.64543,-1.93625 0,-1.93625 -0.91274,0 -2.848983,1.93625 -1.93624,1.93625 1.44319,0 2.42929,-1.93625 3.87253,-1.93625 0.64538,0 -0.20418,1.32395 0,1.93625 0.4561,1.36913 1.13568,2.67168 1.93624,3.87249 0.50629,0.75946 1.52801,1.11985 1.93624,1.93625 0.28882,0.57727 -0.45659,1.47986 0,1.93624 0.4561,0.4564 1.47985,-0.45639 1.93624,0 5.45196,0.1202 0.49305,4.36555 1.93624,5.80874 0.4566,0.4564 1.32393,-0.20409 1.93625,0 1.36914,0.4564 2.85198,0.91576 3.87248,1.93625 0.86054,0.86055 -1.50597,3.65735 1.93624,1.93624 1.63281,-0.81639 2.23971,-3.0561 3.87253,-3.87249 0.57723,-0.28867 1.47984,0.4564 1.93624,0 0.64789,-0.64791 -0.64794,-3.22458 0,-3.87249 0.4561,-0.4564 1.47984,0.45639 1.93624,0 0.4561,-0.4564 -0.28881,-1.35897 0,-1.93625 0.40838,-0.81639 1.29081,-2.58166 1.93624,-1.93624 0.64543,0.64541 -1.93624,2.849 -1.93624,1.93624 0,-1.44319 0.91575,-2.852 1.93624,-3.87249 0.45659,-0.4564 1.47985,0.4564 1.93624,0 0.4566,-0.4564 -0.45659,-1.47987 0,-1.93625 0.4566,-0.45639 1.47985,0.4564 1.93624,0 2.3583,-2.35832 0.90699,-4.32598 3.87249,-5.80873 0.57728,-0.28867 1.47989,0.45639 1.93624,0 0.45659,-0.4564 -0.4566,-1.47987 0,-1.93625 0.45659,-0.4564 1.47989,0.4564 1.93624,0 0.45659,-0.4564 0,-1.29083 0,-1.93625 1.29086,-1.29083 2.35362,-2.85988 3.87253,-3.87249 0.53699,-0.358 1.93624,-0.64542 1.93624,0 0,0.64541 -1.93624,0.64541 -1.93624,0 0,-0.91276 1.52801,-1.11985 1.93624,-1.93625 0.28882,-0.57727 -0.45659,-1.47986 0,-1.93624 0.4561,-0.4564 1.93624,-0.64542 1.93624,0 0,1.69184 -6.42173,-1.93625 0,-1.93625 0.64543,0 0.64543,1.93625 0,1.93625 -2.58167,0 1.93624,-4.51791 1.93624,-1.93625 0,0.64541 -2.58167,0 -1.93624,0 1.29081,0 2.58167,0 3.87249,0 4.93386,0 2.58073,2.25849 5.80872,3.87249 0.57728,0.28867 1.29086,0 1.93624,0 0.64543,0.64542 1.17681,1.42995 1.93629,1.93625 1.20077,0.80054 2.50334,1.47987 3.87248,1.93624 0.61227,0.20409 1.47985,-0.45639 1.93624,0 0.45611,0.4564 -0.45659,1.47987 0,1.93625 0.45611,0.4564 1.93624,-0.64541 1.93624,0 0,0.64542 -1.93624,0.64542 -1.93624,0 0,-3.86874 4.65509,-0.7826 5.80873,-1.93625 0.45659,-0.45639 -0.4561,-1.47986 0,-1.93624 0.91274,-0.91276 2.95974,0.91276 3.87248,0 0.45659,-0.4564 0.64543,-1.93625 0,-1.93625 -0.91274,0 -2.84899,1.93625 -1.93624,1.93625 1.44319,0 2.85203,-0.91575 3.87248,-1.93625 0.45659,-0.45639 -0.64538,-1.93624 0,-1.93624 1.33539,0 -2.34486,6.42172 1.93629,0 0.80052,-1.20081 0.91575,-2.852 1.93624,-3.8725 0.4561,-0.45639 1.47985,0.4564 1.93624,0 0.45611,-0.45639 -0.28881,-1.35896 0,-1.93624 0.25044,-0.5008 3.6221,-3.37169 3.87249,-3.8725 0.28881,-0.57727 -0.4566,-1.47986 0,-1.93625 1.02049,-1.02049 2.67166,-1.1357 3.87248,-1.93624 3.83583,0.19326 0.91574,-2.852 1.93624,-3.87249 0.45659,-0.4564 1.47989,0.45639 1.93624,0 0.45659,-0.4564 -0.4561,-1.47987 0,-1.93625 0.19386,-0.19361 5.61512,-0.19361 5.80877,0 0.91275,0.91276 -0.91279,2.95974 0,3.87249 0.4561,0.4564 1.29081,0 1.93624,0 1.27197,0 7.28966,0.22766 7.74497,0 0.57729,-0.28862 -0.4561,-1.47986 0,-1.93624 0.91274,-0.91276 2.95974,0.91276 3.87248,0 0.4566,-0.4564 -0.4561,-1.47987 0,-1.93625 0.9128,-0.91275 2.95974,0.91276 3.87253,0 0.4566,-0.4564 -0.45659,-1.47986 0,-1.93624 0.4566,-0.4564 1.93624,-0.64542 1.93624,0 0,0.64541 -2.39263,0.45639 -1.93624,0 1.02045,-1.0205 2.67167,-1.13571 3.87249,-1.93625 0.75943,-0.5063 1.11983,-1.52805 1.93624,-1.93625 0.57728,-0.28862 1.47984,0.4564 1.93624,0 0.45659,-0.4564 -0.64543,-1.93625 0,-1.93625 0.64543,0 -0.64543,1.93625 0,1.93625 0.91274,0 1.11983,-1.52805 1.93624,-1.93625 0.57729,-0.28862 1.47989,0.4564 1.93624,0 2.58167,-2.58166 -3.22705,-1.93624 1.93624,-1.93624 0.64543,0 1.4799,-0.4564 1.93624,0 0.4566,0.45639 0.64543,1.93624 0,1.93624 -0.64538,0 -0.64538,-1.93624 0,-1.93624 4.02909,0 0.77911,2.71533 1.93624,3.87249 0.4566,0.4564 1.93629,-0.64542 1.93629,0 0,0.64541 -2.58167,0 -1.93629,0 10.97207,0 0.64543,-1.29083 3.87254,1.93625 0.4561,0.4564 1.29081,0 1.93624,0 1.29081,0 2.71791,-0.57728 3.87248,0 0.57728,0.28862 -0.45659,1.47987 0,1.93625 0.45659,0.45639 1.29081,0 1.93624,0 3.87248,0 7.74497,0 11.6175,0 0.64538,0 1.29081,0 1.93624,0 0.64538,0 1.47984,-0.4564 1.93624,0 0.4561,0.45639 -0.45659,1.47986 0,1.93624 0.4561,0.4564 1.47984,-0.4564 1.93624,0 1.0205,1.02049 1.07034,2.71794 1.93624,3.87249 1.09533,1.46041 2.85991,2.35358 3.87248,3.87249 0.35819,0.53702 -0.4561,1.47987 0,1.93625 0.4566,0.4564 1.35901,-0.28862 1.93625,0 0.69281,0.34643 9.66108,9.65101 9.68125,9.68124 0.35819,0.53701 -0.45659,1.47986 0,1.93624 0.4561,0.4564 1.32392,-0.20409 1.93624,0 2.73828,0.91276 5.00673,2.95974 7.74497,3.87249 1.24195,0.41399 5.75696,0 7.74501,0 0.64538,0 1.47984,0.4564 1.93624,0 0.45659,-0.45639 -0.64543,-1.93624 0,-1.93624 0.64543,0 -0.64543,1.93624 0,1.93624 0.91275,0 1.11984,-1.52804 1.93624,-1.93624 0.58924,-0.29462 4.93672,0 5.80873,0 0.64543,0 1.47989,-0.4564 1.93624,0 0.45659,0.45639 -0.4561,1.47987 0,1.93624 0.45659,0.4564 1.47989,-0.45639 1.93624,0 0.45659,0.4564 -0.28882,1.35897 0,1.93625 4.02914,8.05819 -0.13383,-2.06991 3.87253,1.93625 0.4561,0.4564 -0.45659,1.47986 0,1.93625 0.4561,0.45639 1.47984,-0.4564 1.93624,0 0.4561,0.45639 -0.45659,1.47986 0,1.93624 0.4561,0.4564 1.47985,-0.45639 1.93624,0 0.4566,0.4564 -0.45659,1.47987 0,1.93625 0.4566,0.45639 1.47985,-0.4564 1.93624,0 0.4566,0.45639 0.64543,1.93624 0,1.93624 -0.64543,0 -0.64543,-1.93624 0,-1.93624 0.91275,0 1.93624,1.02349 1.93624,1.93624 0,0.64542 -1.93624,-0.64541 -1.93624,0 0,0.91276 1.29081,1.29083 1.93624,1.93625 l 0.43101,36.19676 -285.059438,0 z"
     id="path5663"
     inkscape:connector-curvature="0" />
  <path
     style="fill:none;stroke:#000000;stroke-width:0.69999999;stroke-linecap:butt;stroke-linejoin:miter;stroke-miterlimit:4;stroke-opacity:1;stroke-dasharray:none"
     d="m 356.26627,201.35691 -313.53143,0 0,-92.41645"
     id="path5673-5-3"
     inkscape:connector-curvature="0"
     sodipodi:nodetypes="ccc" />
  <path
     style="fill:none;stroke:#000000;stroke-width:0.5;stroke-linecap:butt;stroke-linejoin:miter;stroke-miterlimit:4;stroke-opacity:1;stroke-dasharray:none"
     d="m 65.933937,193.6904 0,7.76651"
     id="path5771"
     inkscape:connector-curvature="0" />
  <path
     style="fill:none;stroke:#000000;stroke-width:0.5;stroke-linecap:butt;stroke-linejoin:miter;stroke-miterlimit:4;stroke-opacity:1;stroke-dasharray:none"
     d="m 89.590109,193.6904 0,7.76651"
     id="path5771-6"
     inkscape:connector-curvature="0" />
  <path
     style="fill:none;stroke:#000000;stroke-width:0.5;stroke-linecap:butt;stroke-linejoin:miter;stroke-miterlimit:4;stroke-opacity:1;stroke-dasharray:none"
     d="m 113.24628,193.6904 0,7.76651"
     id="path5771-4"
     inkscape:connector-curvature="0" />
  <path
     style="fill:none;stroke:#000000;stroke-width:0.5;stroke-linecap:butt;stroke-linejoin:miter;stroke-miterlimit:4;stroke-opacity:1;stroke-dasharray:none"
     d="m 136.90246,185.36913 0,16.08778"
     id="path5771-2"
     inkscape:connector-curvature="0" />
  <path
     style="fill:none;stroke:#000000;stroke-width:0.5;stroke-linecap:butt;stroke-linejoin:miter;stroke-miterlimit:4;stroke-opacity:1;stroke-dasharray:none"
     d="m 160.55862,193.6904 0,7.76651"
     id="path5771-25"
     inkscape:connector-curvature="0" />
  <path
     style="fill:none;stroke:#000000;stroke-width:0.5;stroke-linecap:butt;stroke-linejoin:miter;stroke-miterlimit:4;stroke-opacity:1;stroke-dasharray:none"
     d="m 184.21479,193.6904 0,7.76651"
     id="path5771-1"
     inkscape:connector-curvature="0" />
  <path
     style="fill:none;stroke:#000000;stroke-width:0.5;stroke-linecap:butt;stroke-linejoin:miter;stroke-miterlimit:4;stroke-opacity:1;stroke-dasharray:none"
     d="m 207.87098,193.6904 0,7.76651"
     id="path5771-0"
     inkscape:connector-curvature="0" />
  <path
     style="fill:none;stroke:#000000;stroke-width:0.5;stroke-linecap:butt;stroke-linejoin:miter;stroke-miterlimit:4;stroke-opacity:1;stroke-dasharray:none"
     d="m 231.52714,185.36913 0,16.08778"
     id="path5771-9"
     inkscape:connector-curvature="0" />
  <path
     style="fill:none;stroke:#000000;stroke-width:0.5;stroke-linecap:butt;stroke-linejoin:miter;stroke-miterlimit:4;stroke-opacity:1;stroke-dasharray:none"
     d="m 255.18331,193.6904 0,7.76651"
     id="path5771-5"
     inkscape:connector-curvature="0" />
  <path
     style="fill:none;stroke:#000000;stroke-width:0.5;stroke-linecap:butt;stroke-linejoin:miter;stroke-miterlimit:4;stroke-opacity:1;stroke-dasharray:none"
     d="m 278.8395,193.6904 0,7.76651"
     id="path5771-47"
     inkscape:connector-curvature="0" />
  <path
     style="fill:none;stroke:#000000;stroke-width:0.5;stroke-linecap:butt;stroke-linejoin:miter;stroke-miterlimit:4;stroke-opacity:1;stroke-dasharray:none"
     d="m 302.49566,193.6904 0,7.76651"
     id="path5771-10"
     inkscape:connector-curvature="0" />
  <path
     style="fill:none;stroke:#000000;stroke-width:0.5;stroke-linecap:butt;stroke-linejoin:miter;stroke-miterlimit:4;stroke-opacity:1;stroke-dasharray:none"
     d="m 326.15184,185.36913 0,16.08778"
     id="path5771-10-1"
     inkscape:connector-curvature="0" />
  <path
     style="fill:none;stroke:#000000;stroke-width:0.5;stroke-linecap:butt;stroke-linejoin:miter;stroke-miterlimit:4;stroke-opacity:1;stroke-dasharray:none"
     d="m 349.808,193.6904 0,7.76651"
     id="path5771-10-0"
     inkscape:connector-curvature="0" />
  <text
     xml:space="preserve"
     style="font-size:12px;font-style:normal;font-weight:normal;line-height:125%;letter-spacing:0px;word-spacing:0px;fill:#000000;fill-opacity:1;stroke:none;font-family:Sans"
     x="121.58312"
     y="229.08052"
     id="text5893"
     sodipodi:linespacing="125%"><tspan
       sodipodi:role="line"
       id="tspan5895"
       x="121.58312"
       y="229.08052">2010</tspan></text>
  <text
     xml:space="preserve"
     style="font-size:12px;font-style:normal;font-weight:normal;line-height:125%;letter-spacing:0px;word-spacing:0px;fill:#000000;fill-opacity:1;stroke:none;font-family:Sans"
     x="216.36308"
     y="229.08052"
     id="text5893-7"
     sodipodi:linespacing="125%"><tspan
       sodipodi:role="line"
       id="tspan5895-4"
       x="216.36308"
       y="229.08052">2011</tspan></text>
  <text
     xml:space="preserve"
     style="font-size:12px;font-style:normal;font-weight:normal;line-height:125%;letter-spacing:0px;word-spacing:0px;fill:#000000;fill-opacity:1;stroke:none;font-family:Sans"
     x="311.03464"
     y="229.08052"
     id="text5893-7-8"
     sodipodi:linespacing="125%"><tspan
       sodipodi:role="line"
       id="tspan5895-4-2"
       x="311.03464"
       y="229.08052">2012</tspan></text>
  <text
     xml:space="preserve"
     style="font-size:12px;font-style:normal;font-weight:normal;line-height:125%;letter-spacing:0px;word-spacing:0px;fill:#000000;fill-opacity:1;stroke:none;font-family:Sans"
     x="27.960648"
     y="229.08052"
     id="text5893-6"
     sodipodi:linespacing="125%"><tspan
       sodipodi:role="line"
       x="27.960648"
       y="229.08052"
       id="tspan5960">2009</tspan></text>
  <text
     xml:space="preserve"
     style="font-size:14px;font-style:normal;font-variant:normal;font-weight:normal;font-stretch:normal;text-align:center;line-height:150%;letter-spacing:0px;word-spacing:0px;writing-mode:lr-tb;text-anchor:middle;fill:#333333;fill-opacity:1;stroke:none;font-family:Sans;-inkscape-font-specification:Sans"
     x="185.9826"
     y="31.919777"
     id="text4626"
     sodipodi:linespacing="150%"><tspan
       sodipodi:role="line"
       x="185.9826"
       y="31.919777"
       id="tspan3396"
       style="font-size:14px;font-style:normal;font-variant:normal;font-weight:bold;font-stretch:normal;text-align:center;line-height:150%;writing-mode:lr-tb;text-anchor:middle;font-family:Sans;-inkscape-font-specification:Sans Bold">Hilo de coser de algodón (520411)</tspan><tspan
       sodipodi:role="line"
       x="185.9826"
       y="52.919777"
       id="tspan8408">Producción interna</tspan></text>
  <text
     xml:space="preserve"
     style="font-size:12px;font-style:normal;font-variant:normal;font-weight:normal;font-stretch:normal;text-align:center;line-height:125%;letter-spacing:0px;word-spacing:0px;writing-mode:lr-tb;text-anchor:middle;fill:#333333;fill-opacity:1;stroke:none;font-family:Sans;-inkscape-font-specification:Sans"
     x="43.2724"
     y="98.53167"
     id="text4626-4"
     sodipodi:linespacing="125%"><tspan
       sodipodi:role="line"
       x="43.2724"
       y="98.53167"
       id="tspan4891">toneladas</tspan></text>
</svg>
