<?xml version="1.0" encoding="UTF-8" standalone="no"?>
<!-- Created with Inkscape (http://www.inkscape.org/) -->

<svg
   xmlns:dc="http://purl.org/dc/elements/1.1/"
   xmlns:cc="http://creativecommons.org/ns#"
   xmlns:rdf="http://www.w3.org/1999/02/22-rdf-syntax-ns#"
   xmlns:svg="http://www.w3.org/2000/svg"
   xmlns="http://www.w3.org/2000/svg"
   xmlns:sodipodi="http://sodipodi.sourceforge.net/DTD/sodipodi-0.dtd"
   xmlns:inkscape="http://www.inkscape.org/namespaces/inkscape"
   width="372.04724"
   height="262.20471"
   id="svg4757"
   version="1.1"
   inkscape:version="0.48.4 r9939"
   sodipodi:docname="Documento nuevo 10">
  <defs
     id="defs4759">
    <marker
       inkscape:stockid="Arrow2Lend"
       orient="auto"
       refY="0.0"
       refX="0.0"
       id="Arrow2Lend"
       style="overflow:visible;">
      <path
         id="path4059"
         style="fill-rule:evenodd;stroke-width:0.62500000;stroke-linejoin:round;"
         d="M 8.7185878,4.0337352 L -2.2072895,0.016013256 L 8.7185884,-4.0017078 C 6.9730900,-1.6296469 6.9831476,1.6157441 8.7185878,4.0337352 z "
         transform="scale(1.1) rotate(180) translate(1,0)" />
    </marker>
  </defs>
  <sodipodi:namedview
     id="base"
     pagecolor="#ffffff"
     bordercolor="#666666"
     borderopacity="1.0"
     inkscape:pageopacity="0.0"
     inkscape:pageshadow="2"
     inkscape:zoom="1.979899"
     inkscape:cx="220.58871"
     inkscape:cy="145.89319"
     inkscape:document-units="px"
     inkscape:current-layer="layer1"
     showgrid="false"
     units="mm"
     showborder="true"
     inkscape:window-width="1020"
     inkscape:window-height="745"
     inkscape:window-x="0"
     inkscape:window-y="19"
     inkscape:window-maximized="0" />
  <metadata
     id="metadata4762">
    <rdf:RDF>
      <cc:Work
         rdf:about="">
        <dc:format>image/svg+xml</dc:format>
        <dc:type
           rdf:resource="http://purl.org/dc/dcmitype/StillImage" />
        <dc:title></dc:title>
      </cc:Work>
    </rdf:RDF>
  </metadata>
  <g
     inkscape:label="Capa 1"
     inkscape:groupmode="layer"
     id="layer1"
     transform="translate(0,-790.15747)">
    <path
       style="fill:#999999;stroke:#999999;stroke-width:0.5;stroke-linecap:butt;stroke-linejoin:miter;stroke-miterlimit:4;stroke-opacity:1;stroke-dasharray:none"
       d="m 159.34291,967.78316 15.58303,-28.38339"
       id="path5742"
       inkscape:connector-curvature="0"
       sodipodi:nodetypes="cc" />
    <path
       style="fill:#999999;stroke:#999999;stroke-width:0.5;stroke-linecap:butt;stroke-linejoin:miter;stroke-miterlimit:4;stroke-opacity:1;stroke-dasharray:none"
       d="m 113.70688,894.40988 0,24.86495"
       id="path5744"
       inkscape:connector-curvature="0"
       sodipodi:nodetypes="cc" />
    <path
       style="fill:#999999;stroke:#999999;stroke-width:0.5;stroke-linecap:butt;stroke-linejoin:miter;stroke-miterlimit:4;stroke-opacity:1;stroke-dasharray:none"
       d="M 235.58846,886.52877 220.56197,867.04998"
       id="path5746"
       inkscape:connector-curvature="0"
       sodipodi:nodetypes="cc" />
    <path
       style="fill:#d5e5ff;stroke:none;fill-opacity:1"
       d="m 108.83718,982.26365 c 2.13547,0 2.72957,0 3.93531,0 0.39353,0 0.78706,0 1.1806,0 0.13117,0 0.39353,-0.13118 0.39353,0 0,0.13118 -0.48629,-0.0928 -0.39353,0 0.48932,0.48933 0.98946,0.39353 1.57412,0.39353 0.13118,0 0.2762,0.0587 0.39353,0 0.16593,-0.083 0.21754,-0.33486 0.39353,-0.39353 0.002,-5.9e-4 1.18022,3.8e-4 1.18059,0 0.9229,-0.9229 -1.21242,0 -0.39353,0 0.29332,0 0.5088,-0.30077 0.78707,-0.39353 0.12444,-0.0415 0.30077,0.0928 0.39353,0 0.18551,-0.18551 -0.11733,-0.5524 0,-0.78706 0.083,-0.16593 0.39353,-0.20802 0.39353,-0.39353 0,-0.13118 -0.39353,0.13117 -0.39353,0 0,-0.18551 0.31056,-0.22761 0.39353,-0.39353 0.0587,-0.11733 -0.0928,-0.30078 0,-0.39353 0.0927,-0.0928 0.30077,0.0928 0.39353,0 0.12758,-0.12759 -0.12489,-1.71789 0,-1.96766 0.083,-0.16593 0.31057,-0.2276 0.39353,-0.39353 0.0587,-0.11733 0,-0.26235 0,-0.39353 0,-0.13118 0,-0.52471 0,-0.39353 0,0.26235 -0.26235,0.78706 0,0.78706 0.60395,0 0.31027,-1.40759 0.39353,-1.57412 0.0587,-0.11733 0.30078,0.0928 0.39353,0 0.0928,-0.0928 -0.13118,-0.39354 0,-0.39354 0.16154,0 -0.41988,2.04671 0.39353,-0.39353 0.083,-0.24889 -0.18551,-0.60155 0,-0.78706 0.0928,-0.0928 0.30078,0.0928 0.39353,0 0.18552,-0.18551 -0.26235,-0.78706 0,-0.78706 0.13118,0 -0.13117,0.39353 0,0.39353 0.18552,0 0.22761,-0.31057 0.39353,-0.39353 0.24396,-0.12198 1.72613,0.12076 1.96766,0 0.11733,-0.0587 -0.0928,-0.30078 0,-0.39353 0.0178,-0.0178 1.78211,0 1.96765,0 2.34006,0 2.05627,0 5.11591,0 0.65588,0 1.31177,0 1.96765,0 0.26236,0 0.53817,0.083 0.78706,0 0.27827,-0.0928 0.5088,-0.30078 0.78707,-0.39353 0.24889,-0.083 0.5247,0 0.78706,0 0.52471,0 1.04941,0 1.57412,0 0.13118,0 0.52471,0 0.39353,0 -0.26235,0 -0.78706,-0.26236 -0.78706,0 0,0.76792 0.8982,0.25233 1.18059,0.39353 0.16593,0.083 0.22761,0.31057 0.39354,0.39353 0.11732,0.0587 0.30077,-0.0928 0.39353,0 0.0927,0.0928 0.13117,0.39353 0,0.39353 -0.18552,0 -0.57905,-0.39353 -0.39353,-0.39353 0.29332,0 0.57965,0.18612 0.78706,0.39353 0.0927,0.0928 -0.0928,0.30078 0,0.39353 0.0927,0.0928 0.30077,-0.0928 0.39353,0 0.0927,0.0928 -0.0928,0.30078 0,0.39353 0.0611,0.0611 1.02746,-0.051 1.18059,0 0.27827,0.0928 0.5088,0.30078 0.78706,0.39353 0.32983,0.10995 1.31333,-0.1304 1.57413,0 0.16593,0.083 0.21754,0.33487 0.39353,0.39353 0.24889,0.083 0.5524,-0.11732 0.78706,0 0.11733,0.0587 -0.0928,0.30078 0,0.39354 0.10768,0.10767 1.36064,-0.10675 1.57412,0 0.16593,0.083 0.22761,0.31056 0.39354,0.39353 0.11732,0.0587 0.26235,0 0.39353,0 0.13117,0 0.2762,0.0587 0.39353,0 0.16592,-0.083 0.23916,-0.29063 0.39352,-0.39353 0.24406,-0.16271 0.52471,-0.26236 0.78706,-0.39354 0.26235,-0.13117 0.65589,-0.65588 0.78706,-0.39353 0.13118,0.26236 -0.78706,0.68686 -0.78706,0.39353 0,-1.52115 0.7271,-0.56031 1.18059,-0.78706 0.16593,-0.083 0.22761,-0.31056 0.39353,-0.39353 0.11733,-0.0587 0.27621,0.0587 0.39354,0 0.16592,-0.083 0.2276,-0.31057 0.39354,-0.39353 0.0566,-0.0283 1.94978,-0.006 1.96765,0 0.17599,0.0587 0.22761,0.31057 0.39353,0.39353 0.15603,0.078 1.10014,-0.0805 1.1806,0 0.0927,0.0928 -0.0928,0.30078 0,0.39353 0.0126,0.0127 1.08515,0 1.18059,0 1.48667,0 -1.74903,0 0.78706,0 0.13118,0 -0.52471,0 -0.39353,0 0.26235,0 0.52471,0 0.78706,0 0.39353,0 0.78706,0 1.18059,0 0.13118,0 0.39354,-0.13117 0.39354,0 0,0.1176 -1.30518,-0.25906 0,0.39353 0.11732,0.0587 0.26235,0 0.39353,0 0.26235,0 0.52471,0 0.78706,0 0.13118,0 -0.52471,0 -0.39353,0 0.26235,0 0.53817,-0.083 0.78706,0 1.22834,0.40945 -0.13118,0.26236 0.39353,0.78707 0.0928,0.0928 0.30078,-0.0928 0.39353,0 0.18551,0.18551 -0.11733,0.5524 0,0.78706 0.083,0.16592 0.31057,0.2276 0.39353,0.39353 0.11733,0.23466 -0.11733,0.5524 0,0.78706 0.083,0.16593 0.31057,0.2276 0.39353,0.39353 0.0587,0.11733 -0.0928,0.30078 0,0.39353 0.0928,0.0928 0.27621,-0.0587 0.39354,0 0.16592,0.083 0.2276,0.31057 0.39353,0.39353 0.11976,0.0599 1.00336,0 1.18059,0 1.01191,0 1.78946,0.0594 1.96765,0 0.176,-0.0587 0.22761,-0.31056 0.39354,-0.39353 0.11732,-0.0587 0.2762,0.0587 0.39353,0 0.10448,-0.0522 1.12835,-1.0761 1.18059,-1.18059 0.0587,-0.11733 -0.0928,-0.30078 0,-0.39353 0.20741,-0.20741 0.50879,-0.30078 0.78706,-0.39353 0.19533,-0.0651 1.14708,-0.0335 1.18059,0 0.52471,0.52471 -0.65588,0.39353 0.39354,0.39353 l 0.18911,8.30545 -60.00583,0 z"
       id="path5669"
       inkscape:connector-curvature="0" />
    <path
       style="fill:none;stroke:#000000;stroke-width:0.30000001;stroke-linecap:butt;stroke-linejoin:miter;stroke-miterlimit:4;stroke-opacity:1;stroke-dasharray:none"
       d="m 172.56066,985.4532 -63.72348,0 0,-18.78312"
       id="path5673"
       inkscape:connector-curvature="0"
       sodipodi:nodetypes="ccc" />
    <path
       style="fill:#d5e5ff;fill-opacity:1;stroke:none"
       d="m 189.38503,855.63857 c 0.31549,0.80799 1.3694,-0.69266 1.96766,-0.39353 0.33185,0.16592 0.45521,0.62113 0.78706,0.78706 0.31483,0.15741 0.86577,-0.15741 1.18059,0 1.85833,0.92916 -2.40196,-0.20696 1.57413,0.78706 0.16113,0.0403 1.57412,-0.039 1.57412,0 0,0.13118 -0.39353,0.13118 -0.39353,0 0,-0.81889 0.55188,-0.15835 0.78706,-0.39353 0.0928,-0.0928 -0.0928,-0.30078 0,-0.39353 0.18551,-0.18551 0.60155,0.18551 0.78706,0 0.0928,-0.0928 -0.0587,-0.27621 0,-0.39353 0.8189,-1.63779 -0.0272,0.4207 0.78707,-0.39353 0.0927,-0.0928 -0.13118,-0.39354 0,-0.39354 0.18551,0 0.21754,0.33487 0.39353,0.39354 0.24889,0.083 0.5524,-0.11733 0.78706,0 0.11733,0.0587 -0.0928,0.30077 0,0.39353 0.0928,0.0928 0.2762,-0.0587 0.39353,0 0.16593,0.083 0.2276,0.31056 0.39353,0.39353 0.11733,0.0587 0.30078,-0.0928 0.39353,0 0.0928,0.0928 -0.0927,0.30077 0,0.39353 0.0928,0.0928 0.26236,0 0.39353,0 1.53731,0 0.0416,0.11733 1.57413,-0.39353 0.12444,-0.0415 0.26908,0.0415 0.39353,0 0.27827,-0.0928 0.50879,-0.30078 0.78706,-0.39353 0.24889,-0.083 0.60155,0.18551 0.78706,0 0.0928,-0.0928 -0.0927,-0.30078 0,-0.39353 0.0928,-0.0928 0.26236,0 0.39353,0 0.26236,0 0.52471,0 0.78707,0 0.13117,0 0.2762,-0.0587 0.39353,0 0.16592,0.083 0.2276,0.31056 0.39353,0.39353 0.11733,0.0587 0.26235,0 0.39353,0 0.13118,0 0.26235,0 0.39353,0 0.13118,0 0.52471,0 0.39353,0 -0.26235,0 -1.04942,0 -0.78706,0 0.14051,0 3.20005,-0.0854 3.54178,0 0.56912,0.14228 1.01758,0.60155 1.57412,0.78706 0.12445,0.0415 0.26236,0 0.39353,0 0.9229,0 -0.18551,0.0928 0.78706,-0.39353 0.11733,-0.0587 0.26236,0 0.39354,0 0.13117,0 0.26235,0 0.39353,0 0.14452,0 1.55828,-0.0158 1.57412,0 0.1749,0.1749 -0.30608,0.74333 0.39353,0.39353 0.16593,-0.083 0.22761,-0.31057 0.39353,-0.39353 0.11043,-0.0552 1.4637,-0.0552 1.57413,0 0.16592,0.083 0.2276,0.31056 0.39353,0.39353 0.23465,0.11733 0.53817,-0.083 0.78706,0 0.82641,0.27547 1.53477,0.90512 2.36119,1.18059 0.31675,0.10559 1.32264,-0.12574 1.57412,0 0.16593,0.083 0.2276,0.31057 0.39353,0.39353 0.11733,0.0587 0.26909,-0.0415 0.39353,0 0.27827,0.0928 0.5088,0.30078 0.78706,0.39353 0.12445,0.0415 0.30078,-0.0928 0.39353,0 0.0928,0.0928 -0.0927,0.30078 0,0.39353 0.13077,0.13077 0.6563,-0.13076 0.78707,0 0.0927,0.0928 -0.0928,0.30078 0,0.39354 0.0927,0.0928 0.30077,0.0928 0.39353,0 0.0927,-0.0928 -0.0928,-0.30078 0,-0.39354 0.0927,-0.0928 0.30077,0.0928 0.39353,0 0.81423,-0.81423 -1.24425,0.0318 0.39353,-0.78706 0.11733,-0.0587 0.33487,0.11733 0.39353,0 0.11733,-0.23465 -0.11733,-0.5524 0,-0.78706 0.0587,-0.11733 0.30078,0.0928 0.39353,0 0.0928,-0.0928 -0.0587,-0.2762 0,-0.39353 0.083,-0.16593 0.31057,-0.2276 0.39353,-0.39353 0.11733,-0.23466 -0.18551,-0.60155 0,-0.78706 0.0928,-0.0928 0.30078,0.0928 0.39353,0 0.0928,-0.0928 -0.0415,-0.26909 0,-0.39353 0.0928,-0.27827 0.30078,-0.5088 0.39353,-0.78707 0.083,-0.24889 -0.18551,-0.60155 0,-0.78706 0.0928,-0.0928 0.30078,0.0928 0.39354,0 0.18551,-0.18551 -0.18552,-0.60155 0,-0.78706 0.0927,-0.0928 0.33486,0.11733 0.39353,0 0.11733,-0.23466 -0.11733,-0.55241 0,-0.78706 0.0587,-0.11733 0.30077,0.0928 0.39353,0 0.23507,-0.23508 -0.52626,-1.66261 0.78706,-0.78706 0.24406,0.1627 0.23083,0.543 0.39353,0.78706 -0.14545,0.67344 0.65472,0.26119 0.78706,0.39353 0.20741,0.20741 0.23083,0.543 0.39353,0.78706 0.20581,0.30871 0.62114,0.45521 0.78707,0.78706 0.0587,0.11733 -0.0928,0.30078 0,0.39353 0.0927,0.0928 0.30077,-0.0928 0.39353,0 0.0927,0.0928 -0.0928,0.30078 0,0.39353 0.0927,0.0928 0.30077,-0.0928 0.39353,0 0.0927,0.0928 -0.0587,0.27621 0,0.39354 0.083,0.16592 0.31057,0.2276 0.39353,0.39353 0.0587,0.11732 -0.0928,0.30077 0,0.39353 0.0928,0.0928 0.30077,-0.0928 0.39353,0 0.18551,0.18551 -0.18551,0.60155 0,0.78706 0.0928,0.0928 0.30077,-0.0928 0.39353,0 0.13169,0.13168 -0.13168,0.65538 0,0.78706 0.0928,0.0928 0.30078,-0.0928 0.39353,0 0.0928,0.0928 -0.0587,0.2762 0,0.39353 0.083,0.16593 0.31057,0.22761 0.39353,0.39353 0.0587,0.11733 0,0.26236 0,0.39353 0.13118,0.13118 0.31057,0.22761 0.39353,0.39354 0.0587,0.11732 -0.0927,0.30077 0,0.39353 0.0928,0.0928 0.30078,-0.0928 0.39353,0 0.0928,0.0928 -0.0728,0.28438 0,0.39353 0.20581,0.30871 0.58126,0.47835 0.78707,0.78706 0.0728,0.10915 -0.0928,0.30077 0,0.39353 0.0927,0.0928 0.30077,0.0928 0.39353,0 0.18551,-0.18551 -0.083,-0.53817 0,-0.78706 0.45219,-1.35659 0.39353,-0.29151 0.39353,-1.18059 0,-2.23001 -0.26235,-0.13118 0.39353,-0.78707 0.0928,-0.0928 0,-0.26235 0,-0.39353 0,-0.26235 -0.11733,-0.5524 0,-0.78706 0.0587,-0.11733 0.30077,0.0928 0.39353,0 0.18551,-0.18551 -0.26235,-0.78706 0,-0.78706 0.13118,0 -0.13118,0.39353 0,0.39353 0.18551,0 0.20802,-0.39353 0.39353,-0.39353 0.13118,0 -0.0928,0.30077 0,0.39353 0.18551,0.18551 0.60155,-0.18551 0.78706,0 0.0928,0.0928 -0.0928,0.30077 0,0.39353 0.0928,0.0928 0.26236,0 0.39354,0 0.78706,0 1.57412,0 2.36118,0 0.13118,0 0.30078,0.0928 0.39353,0 0.0928,-0.0928 -0.11733,-0.33487 0,-0.39353 0.23466,-0.11733 0.55241,0.11733 0.78706,0 0.11733,-0.0587 -0.0927,-0.30078 0,-0.39353 0.0928,-0.0928 0.27621,0.0587 0.39354,0 0.16592,-0.083 0.2276,-0.31057 0.39353,-0.39353 0.11732,-0.0587 0.30077,0.0928 0.39353,0 0.0927,-0.0928 -0.11733,-0.33487 0,-0.39353 0.23465,-0.11733 0.78706,-0.26236 0.78706,0 0,0.26235 -1.04942,0 -0.78706,0 2.18706,0 1.04126,0 2.36118,0 0.69268,0 0.78707,0.32549 0.78707,-0.39353 l 0.29021,8.26788 -59.7134,0 z"
       id="path5667"
       inkscape:connector-curvature="0" />
    <path
       style="fill:none;stroke:#000000;stroke-width:0.30000001;stroke-linecap:butt;stroke-linejoin:miter;stroke-miterlimit:4;stroke-opacity:1;stroke-dasharray:none"
       d="m 253.25851,863.36292 -63.72348,0 0,-18.78312"
       id="path5673-5"
       inkscape:connector-curvature="0"
       sodipodi:nodetypes="ccc" />
    <path
       style="fill:#d5e5ff;fill-opacity:1;stroke:none"
       d="m 258.07711,932.65665 c 0.52471,0.26235 1.83648,0.26235 1.57413,0.78706 -0.26236,0.52471 -1.98894,-1.20188 -1.57413,-0.78706 0.54086,0.54085 1.37038,0.70277 1.96766,1.18059 0.10243,0.0819 -0.11733,0.33487 0,0.39353 0.23465,0.11733 0.53254,-0.0636 0.78706,0 0.28456,0.0711 0.50879,0.30078 0.78706,0.39353 0.12445,0.0415 0.30078,-0.0928 0.39353,0 0.0928,0.0928 -0.0927,0.30078 0,0.39353 0.18552,0.18552 0.60155,-0.18551 0.78707,0 0.0927,0.0928 -0.0928,0.30078 0,0.39354 0.19676,0.19676 0.98382,-0.19677 1.18059,0 0.0927,0.0928 -0.0928,0.30077 0,0.39353 0.0927,0.0928 0.26908,-0.0415 0.39353,0 0.27827,0.0928 0.543,0.23082 0.78706,0.39353 0.44937,0.29957 0.46726,0.78706 1.18059,0.78706 0.13118,0 -0.13117,-0.39353 0,-0.39353 0.13118,0 -0.13117,0.39353 0,0.39353 0.29333,0 0.49375,-0.39353 0.78707,-0.39353 0.18551,0 0.2276,0.31057 0.39353,0.39353 0.25147,0.12574 1.25737,-0.10559 1.57412,0 1.35659,0.45219 0.29152,0.39353 1.18059,0.39353 0.13118,0 0.26909,0.0415 0.39354,0 0.27826,-0.0928 0.50879,-0.30077 0.78706,-0.39353 0.31372,-0.10457 1.87247,0.0952 1.96765,0 0.0928,-0.0928 -0.0927,-0.30078 0,-0.39353 0.20741,-0.20741 0.57966,-0.18612 0.78706,-0.39353 0.0928,-0.0928 -0.0928,-0.30078 0,-0.39353 0.18552,-0.18552 0.60155,0.18551 0.78707,0 0.13168,-0.13169 -0.13169,-0.65538 0,-0.78707 0.0927,-0.0928 0.26235,0 0.39353,0 0.26235,0 0.53817,-0.083 0.78706,0 0.17599,0.0587 0.26235,0.26236 0.39353,0.39354 0.13118,0.13117 0.26235,0.26235 0.39353,0.39353 0.54839,0.54838 1.02574,1.02573 1.57413,1.57412 0.13117,0.13118 0.31056,0.2276 0.39353,0.39353 0.0587,0.11733 -0.13118,0.39353 0,0.39353 0.695,0 0.24421,-1.18059 0.39353,-1.18059 0.18551,0 0.39353,0.20802 0.39353,0.39353 0,0.13118 -0.52471,0 -0.39353,0 0.39353,0 0.81521,-0.14615 1.18059,0 0.1998,0.0799 1.08345,1.34415 1.57412,1.18059 0.27827,-0.0928 0.18613,-0.57965 0.39354,-0.78706 0.22689,-0.22689 0.78345,0.26115 1.18059,0.39353 0.12444,0.0415 0.26235,0 0.39353,0 0.13118,0 0.30077,0.0928 0.39353,0 0.0928,-0.0928 -0.0928,-0.30077 0,-0.39353 0.0928,-0.0928 0.33487,0.11733 0.39353,0 0.11733,-0.23466 -0.18551,-0.60155 0,-0.78706 0.18551,-0.18551 0.52471,0 0.78706,0 0.13118,0 0.30078,0.0928 0.39353,0 0.0928,-0.0928 -0.0927,-0.30078 0,-0.39353 0.0928,-0.0928 0.30078,-0.0928 0.39354,0 0.0927,0.0928 0.13117,0.39353 0,0.39353 -0.13118,0 -0.13118,-0.39353 0,-0.39353 0.18551,0 0.2276,0.31057 0.39353,0.39353 0.11733,0.0587 0.39353,-0.13118 0.39353,0 0,0.13118 -0.52471,0 -0.39353,0 0.26235,0 0.5524,0.11733 0.78706,0 0.11733,-0.0587 -0.0928,-0.30078 0,-0.39353 0.0927,-0.0928 0.26235,0 0.39353,0 0.13118,-0.13118 0.28222,-0.24512 0.39353,-0.39353 0.28378,-0.37837 0.40869,-0.89682 0.78706,-1.1806 0.38789,-0.29091 1.32665,0.20792 1.57413,0.39354 0.29682,0.22261 0.4552,0.62113 0.78706,0.78706 0.23466,0.11733 0.5524,-0.11733 0.78706,0 0.26235,0.26235 0.52471,0.52471 0.78706,0.78706 0.13118,0 0.27621,-0.0587 0.39353,0 0.16593,0.083 0.39353,0.20802 0.39353,0.39353 0,0.13118 -0.39353,0.13118 -0.39353,0 0,-0.13118 0.26236,0 0.39353,0 0.26236,0 0.55241,-0.11733 0.78707,0 0.11733,0.0587 0.13117,0.39353 0,0.39353 -0.13118,0 -0.0587,-0.2762 0,-0.39353 0.24314,-0.48629 0.37994,-0.39353 0.78706,-0.39353 0.34103,0 1.34616,0.076 1.57412,0 2.85051,-0.95017 -0.62044,0.11346 1.1806,-0.78706 0.11732,-0.0587 0.26235,0 0.39353,0 0.13117,0 0.39353,-0.13118 0.39353,0 0,0.13117 -0.51086,-0.0587 -0.39353,0 0.30736,0.15368 1.62379,0.4432 1.96765,0.78706 0.0928,0.0928 0.13118,0.39353 0,0.39353 -0.13118,0 -0.0587,-0.2762 0,-0.39353 0.16593,-0.33186 0.62114,-0.45521 0.78706,-0.78706 0.10495,-0.20989 -0.23611,-0.70836 0.39353,-0.39353 0.16593,0.083 0.26236,0.26235 0.39354,0.39353 0.26235,0.26235 0.49734,0.55528 0.78706,0.78706 0.36932,0.29546 0.80222,0.50328 1.18059,0.78706 0.78706,0.5903 0,0.39353 1.18059,1.18059 0.10915,0.0728 0.39353,-0.13117 0.39353,0 0,0.13118 -0.5247,0 -0.39353,0 0.26236,0 0.52471,0 0.78707,0 0.13117,0 0.39353,-0.13117 0.39353,0 0,0.13118 -0.48629,0.0928 -0.39353,0 0.20741,-0.2074 0.62435,-0.14947 0.78706,-0.39353 0.14553,-0.21829 -0.11733,-0.5524 0,-0.78706 0.0587,-0.11733 0.30077,0.0928 0.39353,0 0.0486,-0.0486 0,-1.32734 0,-1.57412 0,-0.13118 0,-0.26236 0,-0.39353 0,-0.13118 -0.13118,-0.39353 0,-0.39353 0.13118,0 0.13118,0.39353 0,0.39353 -0.47709,0 0.0979,-0.49149 0.39353,-0.78707 0.13118,-0.13117 0.26235,-0.26235 0.39353,-0.39353 0.13118,-0.13117 0.31057,-0.2276 0.39353,-0.39353 0.0587,-0.11733 -0.0587,-0.2762 0,-0.39353 0.083,-0.16593 0.31057,-0.2276 0.39353,-0.39353 0.0587,-0.11733 -0.0928,-0.30078 0,-0.39353 0.0928,-0.0928 0.30078,0.0928 0.39353,0 0.0928,-0.0928 -0.0587,-0.2762 0,-0.39353 0.083,-0.16593 0.26236,-0.26236 0.39354,-0.39353 0.13117,-0.13118 0.20801,-0.39353 0.39353,-0.39353 0.18551,0 0.21753,0.33486 0.39353,0.39353 0.24889,0.083 0.5524,-0.11733 0.78706,0 0.11733,0.0587 -0.0587,0.2762 0,0.39353 0.24314,0.48628 0.37995,0.39353 0.78706,0.39353 0.13118,0 0.30078,-0.0928 0.39353,0 0.0928,0.0928 0.13118,0.39353 0,0.39353 -0.18551,0 -0.57904,-0.39353 -0.39353,-0.39353 0.29332,0 0.54301,0.23082 0.78706,0.39353 0.15436,0.1029 0.22761,0.31057 0.39353,0.39353 0.11733,0.0587 0.30078,-0.0928 0.39354,0 0.0927,0.0928 0.13117,0.39353 0,0.39353 -0.13118,0 -0.13118,-0.39353 0,-0.39353 0.18551,0 0.2276,0.31057 0.39353,0.39353 0.11732,0.0587 0.26235,0 0.39353,0 0.13117,0 0.26235,0 0.39353,0 0.13118,0 0.39353,-0.13117 0.39353,0 0,0.13118 -0.52471,0 -0.39353,0 0.39353,0 0.78706,0 1.18059,0 0.13118,0 0.39353,-0.13117 0.39353,0 0,0.13118 -0.52471,0 -0.39353,0 0.26236,0 0.52471,0 0.78706,0 0.13118,0 0.39353,-0.13117 0.39353,0 0,0.13118 -0.5247,0 -0.39353,0 0.39353,0 0.78707,0 1.1806,0 l 0.20292,5.92788 -60.01964,0 z"
       id="path5671"
       inkscape:connector-curvature="0" />
    <path
       style="fill:none;stroke:#000000;stroke-width:0.30000001;stroke-linecap:butt;stroke-linejoin:miter;stroke-miterlimit:4;stroke-opacity:1;stroke-dasharray:none"
       d="m 321.88657,940.00865 -63.72348,0 0,-18.78312"
       id="path5673-5-6"
       inkscape:connector-curvature="0"
       sodipodi:nodetypes="ccc" />
    <path
       style="fill:#d5e5ff;fill-opacity:1;stroke:none"
       d="m 83.92134,889.37715 c 3.26232,0.81558 0.67437,0.64664 1.96766,0 0.11733,-0.0587 0.30077,0.0928 0.39353,0 0.0928,-0.0928 -0.0928,-0.30078 0,-0.39353 0.0928,-0.0928 0.30077,0.0928 0.39353,0 0.0928,-0.0928 -0.0928,-0.30078 0,-0.39353 0.20741,-0.20741 0.57965,-0.18613 0.78706,-0.39353 0.0928,-0.0928 -0.45219,0.11732 -0.39353,0 0.26236,-0.26236 0.52471,-0.52471 0.78706,-0.78707 0.13118,0 0.30078,0.0928 0.39353,0 0.0928,-0.0928 -0.0587,-0.2762 0,-0.39353 0.083,-0.16593 0.31057,-0.2276 0.39354,-0.39353 0.11759,-0.23519 -0.25906,-0.78706 0.39353,-0.78706 0.29332,0 0.50879,0.30077 0.78706,0.39353 0.12444,0.0415 0.30077,-0.0928 0.39353,0 0.0928,0.0928 -0.0928,0.30077 0,0.39353 0.0928,0.0928 0.30077,-0.0928 0.39353,0 0.0928,0.0928 -0.0928,0.30078 0,0.39353 0.0555,0.0555 1.09987,0.0404 1.18059,0 0.16593,-0.083 0.22761,-0.31057 0.39353,-0.39353 0.11733,-0.0587 0.30078,0.0928 0.39354,0 0.0927,-0.0928 -0.0928,-0.30077 0,-0.39353 0.2074,-0.20741 0.524699,-0.26235 0.787059,-0.39353 0.26235,-0.13118 0.52471,-0.26235 0.78706,-0.39353 0.26235,-0.13118 0.52471,-0.26236 0.78706,-0.39353 0.13118,-0.13118 0.22761,-0.31057 0.39353,-0.39353 0.11733,-0.0587 0.30078,0.0928 0.39353,0 0.18552,-0.18552 -0.26235,-0.78707 0,-0.78707 0.55751,0 -1.115,1.83648 0,-0.39353 0.0587,-0.11733 0.30078,0.0928 0.39353,0 0.0928,-0.0928 0.13118,-0.39353 0,-0.39353 -0.18551,0 -0.57904,0.39353 -0.39353,0.39353 0.29332,0 0.49374,-0.39353 0.78707,-0.39353 0.13117,0 -0.0415,0.26909 0,0.39353 0.0927,0.27827 0.23082,0.54301 0.39353,0.78707 0.1029,0.15435 0.31056,0.2276 0.39353,0.39353 0.0587,0.11732 -0.0928,0.30077 0,0.39353 0.0927,0.0928 0.30077,-0.0928 0.39353,0 1.10808,0.0244 0.10021,0.88727 0.39353,1.18059 0.0928,0.0928 0.26908,-0.0415 0.39353,0 0.27827,0.0928 0.57965,0.18612 0.78706,0.39353 0.1749,0.1749 -0.30608,0.74334 0.39353,0.39353 0.33186,-0.16593 0.455211,-0.62113 0.787071,-0.78706 0.11732,-0.0587 0.30077,0.0928 0.39353,0 0.13168,-0.13168 -0.13169,-0.65538 0,-0.78706 0.0927,-0.0928 0.30077,0.0928 0.39353,0 0.0927,-0.0928 -0.0587,-0.2762 0,-0.39353 0.083,-0.16593 0.26235,-0.52471 0.39353,-0.39353 0.13118,0.13117 -0.39353,0.57904 -0.39353,0.39353 0,-0.29332 0.18612,-0.57966 0.39353,-0.78706 0.0928,-0.0928 0.30077,0.0928 0.39353,0 0.0928,-0.0928 -0.0928,-0.30078 0,-0.39354 0.0928,-0.0928 0.30077,0.0928 0.39353,0 0.47931,-0.47931 0.18434,-0.87923 0.78706,-1.18059 0.11733,-0.0587 0.30078,0.0928 0.39353,0 0.0928,-0.0928 -0.0928,-0.30077 0,-0.39353 0.0928,-0.0928 0.30078,0.0928 0.39353,0 0.0928,-0.0928 0,-0.26235 0,-0.39353 0.26236,-0.26235 0.47836,-0.58126 0.78707,-0.78706 0.10914,-0.0728 0.39353,-0.13118 0.39353,0 0,0.13117 -0.39353,0.13117 -0.39353,0 0,-0.18552 0.31056,-0.22761 0.39353,-0.39353 0.0587,-0.11733 -0.0928,-0.30078 0,-0.39354 0.0927,-0.0928 0.39353,-0.13117 0.39353,0 0,0.34386 -1.30518,-0.39353 0,-0.39353 0.13118,0 0.13118,0.39353 0,0.39353 -0.52471,0 0.39353,-0.91823 0.39353,-0.39353 0,0.13118 -0.52471,0 -0.39353,0 0.26235,0 0.52471,0 0.78706,0 1.00278,0 0.52452,0.45903 1.18059,0.78707 0.11733,0.0587 0.26236,0 0.39353,0 0.13118,0.13117 0.23918,0.29062 0.39354,0.39353 0.24405,0.1627 0.50879,0.30077 0.78706,0.39353 0.12444,0.0415 0.30077,-0.0928 0.39353,0 0.0927,0.0928 -0.0928,0.30077 0,0.39353 0.0927,0.0928 0.39353,-0.13118 0.39353,0 0,0.13118 -0.39353,0.13118 -0.39353,0 0,-0.7863 0.94612,-0.15906 1.18059,-0.39353 0.0928,-0.0928 -0.0927,-0.30078 0,-0.39353 0.18551,-0.18552 0.60155,0.18551 0.78706,0 0.0928,-0.0928 0.13118,-0.39353 0,-0.39353 -0.18551,0 -0.57904,0.39353 -0.39353,0.39353 0.29332,0 0.57966,-0.18612 0.78706,-0.39353 0.0928,-0.0928 -0.13117,-0.39354 0,-0.39354 0.27141,0 -0.47658,1.30518 0.39354,0 0.1627,-0.24405 0.18612,-0.57965 0.39353,-0.78706 0.0927,-0.0928 0.30077,0.0928 0.39353,0 0.0927,-0.0928 -0.0587,-0.2762 0,-0.39353 0.0509,-0.10178 0.73617,-0.68527 0.78706,-0.78706 0.0587,-0.11733 -0.0928,-0.30077 0,-0.39353 0.20741,-0.20741 0.543,-0.23083 0.78706,-0.39353 0.77961,0.0393 0.18612,-0.57966 0.39353,-0.78706 0.0928,-0.0928 0.30078,0.0928 0.39353,0 0.0928,-0.0928 -0.0927,-0.30078 0,-0.39354 0.0394,-0.0394 1.14124,-0.0394 1.1806,0 0.18551,0.18552 -0.18552,0.60155 0,0.78707 0.0927,0.0928 0.26235,0 0.39353,0 0.25852,0 1.48158,0.0463 1.57412,0 0.11733,-0.0587 -0.0927,-0.30078 0,-0.39353 0.18551,-0.18552 0.60155,0.18551 0.78706,0 0.0928,-0.0928 -0.0927,-0.30078 0,-0.39354 0.18552,-0.18551 0.60155,0.18552 0.78707,0 0.0928,-0.0928 -0.0928,-0.30077 0,-0.39353 0.0928,-0.0928 0.39353,-0.13117 0.39353,0 0,0.13118 -0.48629,0.0928 -0.39353,0 0.2074,-0.20741 0.543,-0.23082 0.78706,-0.39353 0.15435,-0.1029 0.2276,-0.31057 0.39353,-0.39353 0.11733,-0.0587 0.30077,0.0928 0.39353,0 0.0928,-0.0928 -0.13118,-0.39353 0,-0.39353 0.13118,0 -0.13118,0.39353 0,0.39353 0.18551,0 0.2276,-0.31057 0.39353,-0.39353 0.11733,-0.0587 0.30078,0.0928 0.39353,0 0.52471,-0.52471 -0.65588,-0.39353 0.39353,-0.39353 0.13118,0 0.30078,-0.0928 0.39353,0 0.0928,0.0928 0.13118,0.39353 0,0.39353 -0.13117,0 -0.13117,-0.39353 0,-0.39353 0.81889,0 0.15835,0.55188 0.39353,0.78706 0.0928,0.0928 0.39354,-0.13118 0.39354,0 0,0.13118 -0.52471,0 -0.39354,0 2.23001,0 0.13118,-0.26235 0.78707,0.39353 0.0927,0.0928 0.26235,0 0.39353,0 0.26235,0 0.5524,-0.11733 0.78706,0 0.11733,0.0587 -0.0928,0.30078 0,0.39353 0.0928,0.0928 0.26235,0 0.39353,0 0.78706,0 1.57412,0 2.36119,0 0.13117,0 0.26235,0 0.39353,0 0.13117,0 0.30077,-0.0928 0.39353,0 0.0927,0.0928 -0.0928,0.30078 0,0.39353 0.0927,0.0928 0.30077,-0.0928 0.39353,0 0.20741,0.20741 0.21754,0.55241 0.39353,0.78707 0.22262,0.29682 0.58126,0.47835 0.78706,0.78706 0.0728,0.10914 -0.0927,0.30077 0,0.39353 0.0928,0.0928 0.27621,-0.0587 0.39353,0 0.14081,0.0704 1.96356,1.96151 1.96766,1.96765 0.0728,0.10915 -0.0928,0.30078 0,0.39354 0.0927,0.0928 0.26908,-0.0415 0.39353,0 0.55654,0.18551 1.01759,0.60155 1.57412,0.78706 0.25242,0.0841 1.17007,0 1.57413,0 0.13117,0 0.30077,0.0928 0.39353,0 0.0928,-0.0928 -0.13118,-0.39353 0,-0.39353 0.13118,0 -0.13118,0.39353 0,0.39353 0.18551,0 0.2276,-0.31057 0.39353,-0.39353 0.11976,-0.0599 1.00336,0 1.18059,0 0.13118,0 0.30078,-0.0928 0.39353,0 0.0928,0.0928 -0.0927,0.30077 0,0.39353 0.0928,0.0928 0.30078,-0.0928 0.39353,0 0.0928,0.0928 -0.0587,0.2762 0,0.39353 0.8189,1.63778 -0.0272,-0.4207 0.78707,0.39353 0.0927,0.0928 -0.0928,0.30077 0,0.39353 0.0927,0.0928 0.30077,-0.0928 0.39353,0 0.0927,0.0928 -0.0928,0.30078 0,0.39353 0.0927,0.0928 0.30077,-0.0928 0.39353,0 0.0928,0.0928 -0.0928,0.30078 0,0.39353 0.0928,0.0928 0.30077,-0.0928 0.39353,0 0.0928,0.0928 0.13118,0.39353 0,0.39353 -0.13118,0 -0.13118,-0.39353 0,-0.39353 0.18551,0 0.39353,0.20802 0.39353,0.39353 0,0.13118 -0.39353,-0.13117 -0.39353,0 0,0.18552 0.26235,0.26236 0.39353,0.39354 l 0.0876,7.35679 -57.93671,0 z"
       id="path5663"
       inkscape:connector-curvature="0" />
    <path
       style="fill:none;stroke:#000000;stroke-width:0.30000001;stroke-linecap:butt;stroke-linejoin:miter;stroke-miterlimit:4;stroke-opacity:1;stroke-dasharray:none"
       d="m 147.79477,891.46804 -63.72348,0 0,-18.78313"
       id="path5673-5-3"
       inkscape:connector-curvature="0"
       sodipodi:nodetypes="ccc" />
    <path
       style="fill:#999999;stroke:#999999;stroke-width:0.5;stroke-linecap:butt;stroke-linejoin:miter;stroke-miterlimit:4;stroke-opacity:1;stroke-dasharray:none"
       d="m 258.96301,959.99164 22.26147,-16.13956"
       id="path5748"
       inkscape:connector-curvature="0"
       sodipodi:nodetypes="cc" />
    <path
       style="fill:none;stroke:#000000;stroke-width:1px;stroke-linecap:butt;stroke-linejoin:miter;stroke-opacity:1;marker-end:url(#Arrow2Lend)"
       d="m 78.852044,131.67348 86.189456,10e-6"
       id="path4836"
       inkscape:connector-type="polyline"
       inkscape:connector-curvature="0"
       inkscape:connection-start="#path2985-8-7"
       inkscape:connection-start-point="d4"
       inkscape:connection-end="#rect4284-96-3"
       inkscape:connection-end-point="d4"
       transform="translate(0,790.15747)" />
    <path
       style="fill:none;stroke:#000000;stroke-width:1px;stroke-linecap:butt;stroke-linejoin:miter;stroke-opacity:1;marker-end:url(#Arrow2Lend)"
       d="M 192.8825,124.17144 280.77075,76.806623"
       id="path4838"
       inkscape:connector-type="polyline"
       inkscape:connector-curvature="0"
       inkscape:connection-start="#rect4284-96-3"
       inkscape:connection-start-point="d4"
       inkscape:connection-end="#path2985-8"
       inkscape:connection-end-point="d4"
       transform="translate(0,790.15747)" />
    <path
       style="fill:none;stroke:#000000;stroke-width:1px;stroke-linecap:butt;stroke-linejoin:miter;stroke-opacity:1;marker-end:url(#Arrow2Lend)"
       d="m 192.8825,139.17554 87.88815,47.36474"
       id="path4840"
       inkscape:connector-type="polyline"
       inkscape:connector-curvature="0"
       inkscape:connection-start="#rect4284-96-3"
       inkscape:connection-start-point="d4"
       inkscape:connection-end="#path2985-8-8"
       inkscape:connection-end-point="d4"
       transform="translate(0,790.15747)" />
    <path
       transform="matrix(0.91569571,0.40187234,-0.40187234,0.91569571,244.97116,746.96527)"
       sodipodi:type="arc"
       style="fill:#e6e6e6;fill-opacity:1;stroke:#000000"
       id="path2985-8"
       sodipodi:cx="89.725067"
       sodipodi:cy="84.328705"
       sodipodi:rx="14.167116"
       sodipodi:ry="14.167116"
       d="m 103.89218,84.328705 a 14.167116,14.167116 0 1 1 -28.334229,0 14.167116,14.167116 0 1 1 28.334229,0 z" />
    <path
       transform="matrix(0.91569571,0.40187234,-0.40187234,0.91569571,244.97116,870.14171)"
       sodipodi:type="arc"
       style="fill:#e6e6e6;fill-opacity:1;stroke:#000000"
       id="path2985-8-8"
       sodipodi:cx="89.725067"
       sodipodi:cy="84.328705"
       sodipodi:rx="14.167116"
       sodipodi:ry="14.167116"
       d="m 103.89218,84.328705 a 14.167116,14.167116 0 1 1 -28.334229,0 14.167116,14.167116 0 1 1 28.334229,0 z" />
    <path
       transform="matrix(0.91569571,0.40187234,-0.40187234,0.91569571,16.409873,808.55349)"
       sodipodi:type="arc"
       style="fill:#e6e6e6;fill-opacity:1;stroke:#000000"
       id="path2985-8-7"
       sodipodi:cx="89.725067"
       sodipodi:cy="84.328705"
       sodipodi:rx="14.167116"
       sodipodi:ry="14.167116"
       d="m 103.89218,84.328705 a 14.167116,14.167116 0 1 1 -28.334229,0 14.167116,14.167116 0 1 1 28.334229,0 z" />
    <rect
       style="fill:#e6e6e6;fill-opacity:1;stroke:#000000;stroke-width:1;stroke-miterlimit:4;stroke-opacity:1;stroke-dasharray:none;stroke-dashoffset:0"
       id="rect4284-96-3"
       width="27.841"
       height="27.841"
       x="165.0415"
       y="907.91046" />
  </g>
</svg>
